<svg width="80" height="80" viewBox="0 0 80 80" fill="none" xmlns="http://www.w3.org/2000/svg"><path d="M35.912 38.255c0 1.43-1.092 2.349-2.934 2.349h-1.45v-4.508c.268-.05.776-.122 1.67-.122 1.695.029 2.714.78 2.714 2.282zM79.997 40c0 3.102-1.213 6.02-3.399 8.212l-4.913 4.913v6.945c0 6.397-5.213 11.613-11.613 11.613h-6.945l-4.908 4.913A11.561 11.561 0 0 1 40 80c-3.104 0-6.02-1.21-8.216-3.406l-4.906-4.904H19.93c-3.104 0-6.018-1.21-8.214-3.398a11.534 11.534 0 0 1-3.399-8.215v-6.952L3.404 48.22a11.54 11.54 0 0 1-3.4-8.214c0-3.104 1.214-6.02 3.4-8.212l4.913-4.91v-6.947c0-6.403 5.213-11.613 11.613-11.613h6.945l4.913-4.917A11.528 11.528 0 0 1 40 0c3.107 0 6.02 1.21 8.217 3.406l4.905 4.906h6.947c3.1 0 6.019 1.208 8.212 3.399a11.53 11.53 0 0 1 3.401 8.214v6.947l4.914 4.914A11.56 11.56 0 0 1 79.997 40zm-54.906-6.637h-9.976v16.32h3.705V43.12h5.861v-3.004h-5.86v-3.729h6.275V33.36l-.005.003zm15.105 16.32c-.315-.63-.82-2.757-1.332-4.6-.413-1.498-1.04-2.593-2.183-3.052v-.07c1.404-.508 2.883-1.935 2.883-4.02 0-1.502-.535-2.64-1.502-3.415-1.162-.918-2.857-1.285-5.28-1.285-1.964 0-3.73.147-4.916.34v16.102h3.656v-6.416h1.118c1.502.026 2.204.583 2.637 2.62.485 2.007.872 3.341 1.136 3.8l3.783-.004zm12.439-3.025H45.92v-3.876h6.008v-3.004H45.92v-3.39h6.377V33.36H42.219v16.32h10.416v-3.022zm12.923 0h-6.71v-3.876h6.006v-3.004h-6.005v-3.39h6.371V33.36H55.148v16.32h10.41v-3.022z" fill="url(#a)"/><defs><linearGradient id="a" x1="40.001" x2="40.001" y2="80" gradientUnits="userSpaceOnUse"><stop stop-color="#FF6440"/><stop offset="1" stop-color="#FF9843"/></linearGradient></defs></svg>