<svg width="80" height="80" viewBox="0 0 80 80" fill="none" xmlns="http://www.w3.org/2000/svg"><path d="M33.528 1.872c.282.47.593.94.254 1.515-.348.592-.931.592-1.515.583-4.035 0-8.062-.01-12.098 0-2.869 0-4.524 1.656-4.524 4.525V71.9c0 2.832 1.646 4.488 4.477 4.497 10.264.01 20.537 0 30.8.01 1.703 0 2.954-.734 3.923-2.268-.386-.122-.696-.32-.978-.291-3.067.291-5.795-.866-8.533-1.966-2.201-.885-4.412-1.76-6.707-2.672.47 1.016.677 2.013.348 3.067-.33 1.072-1.007 1.834-2.013 2.295-1.534.715-3.35.254-4.394-1.082a3.66 3.66 0 0 1-.028-4.525c1.185-1.524 2.888-1.797 5.09-.8-.151-.564-.292-1.138-.48-1.843H20.376c-1.834 0-2.474-.64-2.474-2.484v-50.63c0-1.825.64-2.455 2.503-2.455h30.047c1.919 0 2.53.592 2.53 2.502V46.68c.781.245 1.458.452 2.267.706V45.89c0-.903-.009-1.806 0-2.7.01-.94.433-1.477 1.13-1.458.705.01 1.11.536 1.119 1.496.01 1.975-.019 3.96.028 5.936.01.376.188.828.452 1.1a253.426 253.426 0 0 0 5.729 5.748c1.41 1.364 2.2 2.945 2.126 4.93-.038 1.035.348 1.89 1.12 2.596a16.896 16.896 0 0 1 1.56 1.618c1.13 1.346 1.036 2.832-.225 4.093a1515.68 1515.68 0 0 1-6.745 6.745c-1.6 1.59-2.992 1.627-4.657.14-.113-.093-.226-.197-.376-.328-.16.188-.292.347-.433.517-1.288 1.514-2.916 2.352-4.91 2.361-10.443.01-20.885.028-31.327 0-3.79-.01-6.453-2.775-6.453-6.623-.01-10.592-.01-21.185-.01-31.778 0-10.47.047-20.931-.018-31.401-.02-3.227 1.58-5.955 4.6-6.858.037-.01.056-.076.084-.113 5.165-.038 10.32-.038 15.485-.038zm-13.34 62.154c.141.02.245.047.339.047h17.347c.188 0 .433-.018.564-.122 1.13-.875 2.39-.733 3.67-.555.686.104 1.382.179 2.078.273-2.145-2.361-4.327-4.563-6.538-6.726-.178-.179-.536-.235-.818-.235-1.825-.047-3.66.028-5.475-.113-1.854-.141-3.236-1.844-3.19-3.66.057-1.862 1.468-3.424 3.312-3.575.95-.075 1.9-.018 2.85-.056.283-.01.603-.066.847-.207 1.6-.922 2.964-.771 4.3.517.648.63 1.288 1.261 1.909 1.91.696.734 1.373 1.486 2.107 2.277.922-1.157 1.985-1.515 3.218-1.515.395-1.627 1.354-2.615 3.047-2.775.104-.01.264-.075.302-.16.244-.668.658-1.345.667-2.023.048-9.36.029-18.73.029-28.09 0-.291-.029-.583-.047-.903h-30.49c-.028 15.23-.028 30.423-.028 45.691zm26.275-9.633c-.414.264-.837.405-1.016.697-.094.15.188.62.414.846 1.157 1.214 2.361 2.38 3.518 3.594.527.555.518 1.213.047 1.665-.47.442-1.053.433-1.618-.057-.188-.16-.357-.348-.536-.526l-9.191-9.191c-.179-.18-.357-.452-.555-.48-.376-.047-.913-.075-1.138.141-.217.216-.207.753-.16 1.129.028.226.33.423.517.62 3.377 3.387 6.764 6.765 10.141 10.142.245.245.499.498.706.78.376.509.47 1.139.084 1.61-.31.385-.846.63-1.326.818-.273.103-.64-.02-.96-.057-1.542-.197-3.076-.414-4.61-.611-.573-.075-1.072.084-1.231.715-.16.62.15 1.006.715 1.213.14.057.282.113.413.17 2.653 1.044 5.316 2.05 7.96 3.132 1.514.612 3.047.95 4.684.819.95-.075 1.863.132 2.615.734.875.705 1.703 1.467 2.54 2.22.461.423.856.517 1.345.018a956.436 956.436 0 0 1 6.905-6.905c.377-.376.395-.733.038-1.11-.49-.508-.96-1.025-1.477-1.495-1.166-1.063-1.74-2.38-1.684-3.933.047-1.467-.527-2.577-1.552-3.584-2.596-2.54-5.146-5.127-7.714-7.695-.16-.16-.31-.33-.49-.47-.423-.348-.884-.386-1.288 0-.423.404-.423.884-.056 1.345.15.197.338.367.517.546.8.8 1.608 1.57 2.38 2.398.49.527.452 1.167-.01 1.609-.432.404-1.044.404-1.561-.028-.264-.226-.508-.49-.753-.734-.78-.771-1.561-1.552-2.342-2.333-.452-.442-.95-.574-1.458-.122-.433.376-.377.978.122 1.524.132.15.282.282.423.423.838.828 1.666 1.665 2.503 2.493.404.404.602.865.329 1.42-.358.734-1.223.847-1.881.207-.979-.94-1.891-1.938-2.889-2.85-.385-.339-.903-.546-1.42-.847zM26.19 15.964h24.488v-2.897H26.19v2.897zm-5.964-2.935v2.945h3.631v-2.945h-3.631zm13.311 38.58c-.517 0-1.242-.057-1.947.019-.715.075-1.091.602-1.129 1.288-.037.659.273 1.299.922 1.365 1.185.122 2.39.037 3.443.037-.395-.828-.809-1.684-1.289-2.71zm1.9 21.025c.781 0 1.421-.649 1.412-1.44a1.398 1.398 0 0 0-1.364-1.4c-.772-.02-1.45.63-1.468 1.392-.019.761.659 1.448 1.42 1.448z" fill="#73C088"/><path d="M52.757 1.872c1.11.452 2.182.95 3.02 1.863 1.222 1.326 1.721 2.907 1.721 4.666.01 9.567.01 19.125.01 28.692 0 .273.037.63-.113.8-.292.32-.715.734-1.063.724-.349-.01-.772-.451-.998-.809-.16-.254-.084-.677-.084-1.025 0-9.389-.01-18.777 0-28.166 0-1.844-.565-3.377-2.324-4.186-.658-.301-1.449-.423-2.173-.433-4.102-.037-8.213-.019-12.314-.019-1.035 0-1.628-.536-1.44-1.335.066-.273.283-.518.433-.772h15.325z" fill="#73C088"/><path d="M35.438 8.495c-.847 0-1.703.01-2.55 0-.78-.02-1.26-.433-1.288-1.082-.029-.659.48-1.157 1.289-1.167a240.65 240.65 0 0 1 5.098 0c.819.01 1.29.47 1.27 1.167-.018.649-.489 1.063-1.27 1.082-.846.01-1.693 0-2.55 0zm.009 36.811c-6.877-.02-12.456-5.598-12.456-12.484 0-6.849 5.682-12.512 12.493-12.455 6.877.056 12.502 5.72 12.437 12.53-.066 6.84-5.673 12.418-12.474 12.409zm-4.253-12.644c-1.345-2.822-1.044-5.165.847-6.792 1.825-1.562 4.318-1.75 6.256-.433a5.044 5.044 0 0 1 1.985 2.569c.564 1.636.292 3.18-.621 4.647 3.114.997 4.055 3.255 3.763 6.322 2.813-3.161 3.349-9.333-.875-13.425-4.252-4.12-10.884-3.847-14.826.659-3.744 4.28-2.737 10.15-.282 12.7-.235-3.039.687-5.316 3.753-6.247zm-.48 9.107c0-.828-.018-1.572 0-2.324.02-.913.424-1.383 1.139-1.374.715.01 1.091.47 1.11 1.393.01 1.072 0 2.145 0 3.245 1.675.442 3.283.461 4.93-.01 0-1.156-.02-2.257.009-3.358.019-.827.48-1.288 1.176-1.27.658.02 1.053.48 1.072 1.28.019.79 0 1.58 0 2.436.762-.207 1.12-.555 1.054-1.335-.066-.922-.01-1.854-.01-2.776-.009-1.806-1.025-2.84-2.84-2.85a304.52 304.52 0 0 0-5.861.01c-1.788.018-2.776 1.006-2.813 2.803-.019.922.047 1.853-.028 2.775-.057.762.254 1.148 1.063 1.355zm4.76-9.23a2.87 2.87 0 0 0 2.842-2.878 2.877 2.877 0 0 0-2.87-2.85 2.85 2.85 0 0 0-2.86 2.925c.02 1.6 1.28 2.823 2.889 2.804z" fill="#73C088"/></svg>