<svg width="80" height="80" viewBox="0 0 80 80" fill="none" xmlns="http://www.w3.org/2000/svg"><path d="M27.288.458A1.575 1.575 0 0 0 26.184 0c-.411 0-.815.167-1.105.458-.29.29-.458.694-.458 1.104 0 .411.167.815.458 1.105.29.29.694.458 1.105.458.41 0 .814-.167 1.104-.458.29-.29.458-.694.458-1.105 0-.41-.167-.814-.458-1.104z" fill="url(#a)"/><path d="M38.524 31.555l-7.035-7.036a1.563 1.563 0 0 0-2.21 0l-6.56 6.56a1.563 1.563 0 0 0 2.21 2.21l5.455-5.455 5.93 5.93c.306.306.706.458 1.106.458a1.562 1.562 0 0 0 1.105-2.667z" fill="url(#b)"/><path d="M40.98 52.595a1.578 1.578 0 0 0-1.106-.458c-.41 0-.813.167-1.105.458-.29.29-.457.694-.457 1.105 0 .41.167.814.457 1.104a1.57 1.57 0 0 0 1.105.458c.412 0 .814-.166 1.106-.458.29-.29.458-.694.458-1.104 0-.411-.167-.815-.458-1.105z" fill="url(#c)"/><path d="M55.867 37.707c-.61-.61-1.6-.61-2.21 0l-4.49 4.49-5.977-5.976a1.563 1.563 0 0 0-2.21 2.21l5.977 5.977-4.31 4.309a1.563 1.563 0 0 0 2.21 2.21l11.01-11.01c.61-.61.61-1.6 0-2.21z" fill="url(#d)"/><path d="M38.58 73.27a1.574 1.574 0 0 0-1.104-.458c-.413 0-.815.167-1.107.458-.29.29-.456.694-.456 1.105 0 .41.166.814.456 1.104.292.291.694.458 1.107.458.41 0 .814-.167 1.104-.458.29-.29.458-.693.458-1.104 0-.411-.167-.814-.458-1.105z" fill="url(#e)"/><path d="M40.676 4.219h-6.407a1.563 1.563 0 0 0 0 3.125h6.407a1.562 1.562 0 1 0 0-3.125z" fill="url(#f)"/><path d="M62.787 8.534V4.712A4.717 4.717 0 0 0 58.076 0H32.629a1.562 1.562 0 1 0 0 3.125h25.446c.875 0 1.587.712 1.587 1.587v3.725H15.288V4.712c0-.875.711-1.587 1.587-1.587h3.045a1.562 1.562 0 1 0 0-3.125h-3.046a4.717 4.717 0 0 0-4.711 4.712v26.267a1.586 1.586 0 0 0 0 .207v5.48a1.563 1.563 0 0 0 3.125 0v-4.941l10.598-10.598c.61-.61.61-1.6 0-2.21l-7.354-7.355h4.271l5.219 5.219a1.558 1.558 0 0 0 2.21 0l5.218-5.218h6.785l-8.611 8.61c-.61.61-.61 1.6 0 2.21l6.978 6.979c.306.305.705.457 1.105.457s.8-.152 1.105-.457c.61-.61.61-1.6 0-2.21l-5.873-5.874 9.715-9.715h6.178c-2.735 2.36-4.472 5.848-4.472 9.737 0 2.937 1.013 5.802 2.855 8.081.017.025.035.05.054.074l8.393 10.753v3.388l-8.996 8.997c-.61.61-.61 1.6 0 2.21l8.996 8.997v4.07L48.63 56.838c-.61-.61-1.6-.61-2.21 0L35.056 68.204h-7.474l9.323-9.323a1.562 1.562 0 0 0-2.21-2.21l-11.99 11.99a1.562 1.562 0 0 0 1.105 2.668h35.854v3.959c0 .875-.712 1.587-1.587 1.587H16.875a1.589 1.589 0 0 1-1.587-1.587v-7.216l2.255 2.89a1.562 1.562 0 0 0 2.464-.001l8.765-11.236a12.893 12.893 0 0 0 2.867-8.096c0-7.093-5.771-12.864-12.864-12.864-7.094 0-12.865 5.771-12.865 12.864 0 2.938 1.013 5.802 2.855 8.082.017.025.035.05.054.074l3.344 4.283v11.22A4.717 4.717 0 0 0 16.875 80h41.2a4.717 4.717 0 0 0 4.712-4.712v-35.08l8.436-10.812.009-.012A12.891 12.891 0 0 0 74.09 21.3c0-6.565-4.944-11.993-11.303-12.766zM22.571 20.022l-7.283 7.283V12.738l7.283 7.284zm6.556-6.555l-1.904-1.905h3.808l-1.904 1.905zm10.348 54.736l8.05-8.05 8.052 8.05H39.475zM11.363 57.965a1.526 1.526 0 0 0-.101-.137 9.754 9.754 0 0 1-2.227-6.199c0-5.37 4.37-9.739 9.74-9.739s9.74 4.369 9.74 9.74a9.758 9.758 0 0 1-2.234 6.208l-7.506 9.622-7.412-9.495zm48.3 1.415l-5.683-5.682 5.683-5.682V59.38zm9.116-31.933l-.049.063-7.505 9.62-7.411-9.494a1.551 1.551 0 0 0-.102-.137 9.753 9.753 0 0 1-2.227-6.2c0-5.37 4.37-9.739 9.74-9.739s9.74 4.37 9.74 9.74a9.756 9.756 0 0 1-2.186 6.148z" fill="url(#g)"/><path d="M61.223 15.56a5.944 5.944 0 0 0-5.938 5.937 5.944 5.944 0 0 0 5.938 5.938 5.944 5.944 0 0 0 5.937-5.938 5.944 5.944 0 0 0-5.937-5.937zm0 8.75a2.816 2.816 0 0 1-2.813-2.813 2.816 2.816 0 0 1 2.813-2.812 2.816 2.816 0 0 1 2.812 2.812 2.816 2.816 0 0 1-2.812 2.813z" fill="url(#h)"/><path d="M18.772 45.89a5.944 5.944 0 0 0-5.937 5.937 5.944 5.944 0 0 0 5.937 5.938 5.944 5.944 0 0 0 5.938-5.938 5.944 5.944 0 0 0-5.938-5.937zm0 8.75a2.816 2.816 0 0 1-2.812-2.813 2.816 2.816 0 0 1 2.812-2.812 2.816 2.816 0 0 1 2.813 2.812 2.816 2.816 0 0 1-2.813 2.813z" fill="url(#i)"/><defs><linearGradient id="a" x1="26.184" x2="26.184" y2="3.125" gradientUnits="userSpaceOnUse"><stop stop-color="#FF6440"/><stop offset="1" stop-color="#FF9843"/></linearGradient><linearGradient id="b" x1="30.621" y1="24.061" x2="30.621" y2="34.222" gradientUnits="userSpaceOnUse"><stop stop-color="#FF6440"/><stop offset="1" stop-color="#FF9843"/></linearGradient><linearGradient id="c" x1="39.875" y1="52.137" x2="39.875" y2="55.262" gradientUnits="userSpaceOnUse"><stop stop-color="#FF6440"/><stop offset="1" stop-color="#FF9843"/></linearGradient><linearGradient id="d" x1="48.424" y1="35.763" x2="48.424" y2="51.384" gradientUnits="userSpaceOnUse"><stop stop-color="#FF6440"/><stop offset="1" stop-color="#FF9843"/></linearGradient><linearGradient id="e" x1="37.476" y1="72.812" x2="37.476" y2="75.937" gradientUnits="userSpaceOnUse"><stop stop-color="#FF6440"/><stop offset="1" stop-color="#FF9843"/></linearGradient><linearGradient id="f" x1="37.473" y1="4.219" x2="37.473" y2="7.344" gradientUnits="userSpaceOnUse"><stop stop-color="#FF6440"/><stop offset="1" stop-color="#FF9843"/></linearGradient><linearGradient id="g" x1="40" x2="40" y2="80" gradientUnits="userSpaceOnUse"><stop stop-color="#FF6440"/><stop offset="1" stop-color="#FF9843"/></linearGradient><linearGradient id="h" x1="61.223" y1="15.56" x2="61.223" y2="27.435" gradientUnits="userSpaceOnUse"><stop stop-color="#FF6440"/><stop offset="1" stop-color="#FF9843"/></linearGradient><linearGradient id="i" x1="18.772" y1="45.89" x2="18.772" y2="57.765" gradientUnits="userSpaceOnUse"><stop stop-color="#FF6440"/><stop offset="1" stop-color="#FF9843"/></linearGradient></defs></svg>