<svg width="80" height="80" viewBox="0 0 80 80" fill="none" xmlns="http://www.w3.org/2000/svg"><g clip-path="url(#a)"><path d="M31.964 11.707a1.575 1.575 0 0 0-1.105-.458c-.41 0-.814.167-1.104.458-.29.29-.458.694-.458 1.105 0 .41.167.814.458 1.104.29.291.693.458 1.104.458.411 0 .814-.167 1.105-.458.29-.29.458-.693.458-1.104 0-.411-.167-.814-.458-1.105z" fill="url(#b)"/><path d="M41.105 61.862A1.574 1.574 0 0 0 40 61.404c-.41 0-.814.167-1.105.458-.29.29-.458.694-.458 1.105 0 .41.168.814.458 1.104.29.29.694.458 1.105.458.41 0 .814-.167 1.105-.458.29-.29.458-.694.458-1.104 0-.411-.168-.814-.458-1.105z" fill="url(#c)"/><path d="M51.992 76.562a1.562 1.562 0 0 0-1.928-1.079c-12.855 3.633-26.703.028-36.139-9.408-6.964-6.964-10.8-16.225-10.8-26.074A1.563 1.563 0 0 0 0 40c0 10.685 4.16 20.73 11.716 28.285a40.06 40.06 0 0 0 39.197 10.206 1.563 1.563 0 0 0 1.08-1.928z" fill="url(#d)"/><path d="M57.564 74.256a1.562 1.562 0 0 0-2.066-.784l-.038.018a1.562 1.562 0 0 0 1.33 2.827 1.562 1.562 0 0 0 .774-2.061z" fill="url(#e)"/><path d="M68.285 11.716A39.962 39.962 0 0 0 49.963 1.255a40.22 40.22 0 0 0-20.474.145 1.562 1.562 0 1 0 .818 3.016c12.74-3.457 26.445.187 35.768 9.51 6.965 6.965 10.8 16.225 10.8 26.075A1.562 1.562 0 1 0 80 40c0-10.685-4.16-20.73-11.715-28.285z" fill="url(#f)"/><path d="M25.273 4.454a1.564 1.564 0 1 0-2.839 1.312 1.564 1.564 0 0 0 2.839-1.312z" fill="url(#g)"/><path d="M66.875 58.995c-1.034 0-1.875-.698-1.875-1.557s.841-1.557 1.875-1.557 1.875.698 1.875 1.557a1.562 1.562 0 1 0 3.125 0c0-2.071-1.444-3.832-3.44-4.447a1.562 1.562 0 0 0-3.12 0c-1.996.615-3.44 2.376-3.44 4.447 0 2.582 2.243 4.682 5 4.682 1.034 0 1.875.699 1.875 1.557 0 .859-.841 1.558-1.875 1.558S65 64.536 65 63.677a1.562 1.562 0 1 0-3.125 0c0 2.072 1.445 3.833 3.44 4.448a1.561 1.561 0 0 0 3.12 0c1.995-.615 3.44-2.376 3.44-4.448 0-2.581-2.243-4.682-5-4.682z" fill="url(#h)"/><path d="M66.875 47.492a13.064 13.064 0 0 0-8.512 3.147V16.127a4.884 4.884 0 0 0-4.878-4.878H37.24a1.562 1.562 0 1 0 0 3.125h16.245c.967 0 1.753.787 1.753 1.754v2.195H26.203C25.661 11.581 20.005 6.26 13.125 6.26 5.888 6.259 0 12.147 0 19.384s5.888 13.125 13.125 13.125c3.246 0 6.218-1.187 8.512-3.146v34.514a4.884 4.884 0 0 0 4.878 4.879h23.172a1.562 1.562 0 1 0 0-3.125H26.515a1.755 1.755 0 0 1-1.753-1.754v-3.31h28.99l-.002.05c0 7.238 5.888 13.126 13.125 13.126S80 67.855 80 60.618c0-7.238-5.888-13.126-13.125-13.126zm-45-23.275a1.593 1.593 0 0 0-.063.111c-1.724 3.017-4.97 5.056-8.687 5.056-5.514 0-10-4.486-10-10s4.486-10 10-10 10 4.486 10 10c0 1.752-.454 3.4-1.25 4.833zm33.363 30.341a13.027 13.027 0 0 0-1.097 2.884H24.76v-26.75h1.76l3.16 14.318a4.166 4.166 0 0 0-.577 2.119 4.199 4.199 0 0 0 4.194 4.194 4.2 4.2 0 0 0 4.088-3.263h2.27a4.2 4.2 0 0 0 4.09 3.262 4.2 4.2 0 0 0 4.088-3.262h.592c.728 0 1.36-.504 1.523-1.214l3.28-14.314a1.562 1.562 0 0 0-1.522-1.911h-22l-.403-1.827a1.562 1.562 0 0 0-1.526-1.226h-3.015v-2.124a13.022 13.022 0 0 0 1.324-3.995h29.152v33.11zm-16.7-13.656h9.567l-.888 3.877a4.193 4.193 0 0 0-3.472-1.844c-1.508 0-2.833.8-3.572 2H36.87a4.194 4.194 0 0 0-4.427-1.912l-2.048-9.278h19.35l-.923 4.032H38.538a1.562 1.562 0 1 0 0 3.125zm6.276 6.227a1.07 1.07 0 1 1-1.069-1.069c.59 0 1.07.48 1.07 1.069zm-10.447 0a1.07 1.07 0 0 1-2.138 0 1.07 1.07 0 0 1 2.138 0zm32.508 23.489c-5.514 0-10-4.486-10-10 0-5.515 4.486-10 10-10s10 4.485 10 10c0 5.514-4.486 10-10 10z" fill="url(#i)"/><path d="M13.125 17.88c-1.034 0-1.875-.698-1.875-1.556 0-.859.841-1.557 1.875-1.557S15 15.465 15 16.324a1.562 1.562 0 1 0 3.125 0c0-2.072-1.445-3.833-3.44-4.448a1.561 1.561 0 0 0-3.12 0c-1.995.615-3.44 2.376-3.44 4.448 0 2.581 2.243 4.682 5 4.682 1.034 0 1.875.698 1.875 1.557s-.841 1.557-1.875 1.557-1.875-.698-1.875-1.557a1.562 1.562 0 1 0-3.125 0c0 2.072 1.444 3.832 3.44 4.448a1.562 1.562 0 0 0 3.12 0c1.996-.616 3.44-2.377 3.44-4.448 0-2.582-2.243-4.682-5-4.682z" fill="url(#j)"/></g><defs><linearGradient id="b" x1="30.859" y1="11.249" x2="30.859" y2="14.374" gradientUnits="userSpaceOnUse"><stop stop-color="#FF6440"/><stop offset="1" stop-color="#FF9843"/></linearGradient><linearGradient id="c" x1="40" y1="61.404" x2="40" y2="64.529" gradientUnits="userSpaceOnUse"><stop stop-color="#FF6440"/><stop offset="1" stop-color="#FF9843"/></linearGradient><linearGradient id="d" x1="26.026" y1="38.438" x2="26.026" y2="79.999" gradientUnits="userSpaceOnUse"><stop stop-color="#FF6440"/><stop offset="1" stop-color="#FF9843"/></linearGradient><linearGradient id="e" x1="56.135" y1="73.334" x2="56.135" y2="76.464" gradientUnits="userSpaceOnUse"><stop stop-color="#FF6440"/><stop offset="1" stop-color="#FF9843"/></linearGradient><linearGradient id="f" x1="54.168" y1=".001" x2="54.168" y2="41.563" gradientUnits="userSpaceOnUse"><stop stop-color="#FF6440"/><stop offset="1" stop-color="#FF9843"/></linearGradient><linearGradient id="g" x1="23.852" y1="3.545" x2="23.852" y2="6.67" gradientUnits="userSpaceOnUse"><stop stop-color="#FF6440"/><stop offset="1" stop-color="#FF9843"/></linearGradient><linearGradient id="h" x1="66.875" y1="51.458" x2="66.875" y2="69.621" gradientUnits="userSpaceOnUse"><stop stop-color="#FF6440"/><stop offset="1" stop-color="#FF9843"/></linearGradient><linearGradient id="i" x1="40" y1="6.259" x2="40" y2="73.743" gradientUnits="userSpaceOnUse"><stop stop-color="#FF6440"/><stop offset="1" stop-color="#FF9843"/></linearGradient><linearGradient id="j" x1="13.125" y1="10.381" x2="13.125" y2="28.543" gradientUnits="userSpaceOnUse"><stop stop-color="#FF6440"/><stop offset="1" stop-color="#FF9843"/></linearGradient><clipPath id="a"><path fill="#fff" d="M0 0h80v80H0z"/></clipPath></defs></svg>