<svg width="24" height="24" viewBox="0 0 24 24" fill="none" xmlns="http://www.w3.org/2000/svg"><path d="M20.363.552H3.638A3.085 3.085 0 0 0 .553 3.637v16.726a3.085 3.085 0 0 0 3.085 3.085h8.249l.014-8.182H9.775a.501.501 0 0 1-.501-.5l-.01-2.637a.502.502 0 0 1 .5-.503h2.123V9.077c0-2.957 1.806-4.567 4.444-4.567h2.165c.277 0 .501.225.501.502v2.223a.501.501 0 0 1-.5.502h-1.33c-1.434 0-1.712.682-1.712 1.683v2.206h3.152a.5.5 0 0 1 .498.56l-.312 2.638a.501.501 0 0 1-.498.442h-2.826l-.014 8.182h4.908a3.085 3.085 0 0 0 3.085-3.085V3.637A3.085 3.085 0 0 0 20.363.552z" fill="#73C088"/></svg>