<svg width="80" height="80" viewBox="0 0 80 80" fill="none" xmlns="http://www.w3.org/2000/svg"><path d="M11.875 42.188c.6 0 1.2-.23 1.657-.687l17.093-17.093 7.718 7.718a2.343 2.343 0 0 0 3.314 0L65.781 8.002v3.717a2.343 2.343 0 1 0 4.688 0V2.344a2.43 2.43 0 0 0-.012-.231c-.003-.038-.01-.076-.016-.113-.006-.038-.01-.076-.017-.113-.009-.046-.022-.09-.033-.134l-.022-.087a1.743 1.743 0 0 0-.049-.138c-.01-.025-.017-.052-.028-.077-.02-.047-.042-.092-.064-.138a2.43 2.43 0 0 0-.119-.214l-.03-.05a2.459 2.459 0 0 0-.134-.183l-.002-.002a2.4 2.4 0 0 0-.338-.338l-.002-.002A2.476 2.476 0 0 0 69.42.39c-.016-.011-.033-.02-.05-.03a2.438 2.438 0 0 0-.146-.087c-.022-.012-.046-.022-.069-.033a2.19 2.19 0 0 0-.138-.064L68.94.148c-.045-.017-.09-.034-.138-.048l-.086-.022c-.045-.011-.089-.024-.134-.033-.038-.007-.075-.011-.113-.017-.038-.005-.075-.013-.113-.016A2.423 2.423 0 0 0 68.125 0H58.75a2.343 2.343 0 1 0 0 4.688h3.717L40 27.154l-7.718-7.717a2.343 2.343 0 0 0-3.314 0l-18.75 18.75a2.343 2.343 0 0 0 1.657 4zM0 77.656A2.343 2.343 0 0 0 2.344 80h18.75a2.343 2.343 0 0 0 2.343-2.344v-3.281H0v3.281zm21.094-13.593H2.344A2.343 2.343 0 0 0 0 66.406v3.281h23.438v-3.28a2.343 2.343 0 0 0-2.344-2.344zm7.187 13.593A2.343 2.343 0 0 0 30.625 80h18.75a2.343 2.343 0 0 0 2.344-2.344v-3.281H28.28v3.281zm28.282-13.593H80v5.624H56.562v-5.624zm21.093-30.938h-18.75a2.343 2.343 0 0 0-2.343 2.344v3.281H80v-3.281a2.343 2.343 0 0 0-2.344-2.344zM56.563 43.438H80v5.624H56.562v-5.624zm0 10.312H80v5.625H56.562V53.75zm0 23.906A2.343 2.343 0 0 0 58.906 80h18.75A2.343 2.343 0 0 0 80 77.656v-3.281H56.562v3.281zM28.281 64.063H51.72v5.624H28.28v-5.624zM49.375 53.75h-18.75a2.343 2.343 0 0 0-2.344 2.344v3.281H51.72v-3.281a2.343 2.343 0 0 0-2.344-2.344z" fill="#73C088"/></svg>