<svg width="24" height="24" viewBox="0 0 24 24" fill="none" xmlns="http://www.w3.org/2000/svg"><path d="M16.628.552H7.373c-3.76 0-6.82 3.06-6.82 6.82v9.255c0 3.76 3.06 6.82 6.82 6.82h9.255c3.76 0 6.82-3.059 6.82-6.82V7.373c0-3.761-3.06-6.82-6.82-6.82zm4.517 16.075a4.517 4.517 0 0 1-4.517 4.518H7.373a4.517 4.517 0 0 1-4.517-4.518V7.373a4.517 4.517 0 0 1 4.517-4.517h9.255a4.517 4.517 0 0 1 4.517 4.517v9.254z" fill="#73C088"/><path d="M12 6.078A5.929 5.929 0 0 0 6.08 12 5.929 5.929 0 0 0 12 17.922 5.928 5.928 0 0 0 17.923 12a5.928 5.928 0 0 0-5.921-5.922zm0 9.54a3.618 3.618 0 1 1 0-7.236 3.618 3.618 0 0 1 0 7.236z" fill="#73C088"/></svg>