<svg width="320" height="569" viewBox="0 0 320 569" fill="none" xmlns="http://www.w3.org/2000/svg"><path fill="#fff" d="M0 0h320v569H0z"/><path d="M68.965 60h-7.269V47.15h7.269v1.776h-5.168v3.498h4.843v1.758h-4.843v4.034h5.168V60zm11.118 0h-2.074v-5.977c0-.75-.153-1.31-.457-1.678-.3-.37-.777-.554-1.433-.554-.873 0-1.512.258-1.916.774-.404.515-.606 1.38-.606 2.592V60H71.53v-9.72h1.617l.29 1.274h.106c.293-.463.709-.82 1.248-1.073a4.183 4.183 0 0 1 1.793-.378c2.332 0 3.498 1.187 3.498 3.56V60zm8.956 0l-.413-1.353h-.07c-.47.591-.94.996-1.415 1.212-.475.211-1.084.317-1.829.317-.955 0-1.702-.258-2.24-.774-.534-.515-.8-1.245-.8-2.188 0-1.002.372-1.758 1.116-2.268.744-.51 1.878-.788 3.401-.835l1.679-.052v-.519c0-.621-.147-1.084-.44-1.389-.287-.31-.735-.466-1.344-.466-.498 0-.976.074-1.433.22-.457.147-.897.32-1.318.519l-.668-1.477a7.063 7.063 0 0 1 1.731-.624 7.82 7.82 0 0 1 1.776-.22c1.236 0 2.167.27 2.794.81.633.538.95 1.385.95 2.54V60h-1.477zm-3.076-1.406c.75 0 1.35-.208 1.802-.624.457-.422.685-1.011.685-1.767v-.844l-1.248.053c-.972.035-1.681.2-2.127.492-.44.287-.659.73-.659 1.327 0 .434.129.771.387 1.011.258.235.644.352 1.16.352zm12.401-8.49c1.213 0 2.157.439 2.83 1.318.68.879 1.02 2.112 1.02 3.7 0 1.594-.343 2.836-1.028 3.727-.686.884-1.638 1.327-2.857 1.327-1.23 0-2.185-.443-2.865-1.327h-.14L94.944 60h-1.547V46.324h2.066v3.252c0 .24-.012.598-.035 1.072a29.93 29.93 0 0 1-.053.906h.088c.656-.967 1.623-1.45 2.9-1.45zm-.536 1.687c-.832 0-1.433.246-1.802.738-.363.487-.55 1.304-.562 2.452v.141c0 1.184.187 2.042.562 2.575.375.528.988.791 1.837.791.733 0 1.286-.29 1.661-.87.381-.58.572-1.418.572-2.514 0-2.209-.756-3.313-2.268-3.313zM106.68 60h-2.066V46.324h2.066V60zm7.207.176c-1.512 0-2.696-.44-3.551-1.319-.85-.884-1.274-2.1-1.274-3.647 0-1.588.395-2.836 1.186-3.744.791-.908 1.878-1.363 3.261-1.363 1.283 0 2.297.39 3.041 1.17.744.779 1.116 1.851 1.116 3.216v1.117h-6.477c.029.943.284 1.67.764 2.18.481.503 1.157.755 2.03.755.575 0 1.108-.053 1.6-.158a8.64 8.64 0 0 0 1.6-.545v1.679a6.37 6.37 0 0 1-1.53.51 9.42 9.42 0 0 1-1.766.149zm-.378-8.508c-.656 0-1.184.208-1.582.624-.393.416-.627 1.023-.703 1.82h4.412c-.012-.803-.205-1.41-.58-1.82-.375-.416-.891-.624-1.547-.624zM124.907 60V47.15h2.101v11.048h5.44V60h-7.541zm18.158-4.878c0 1.588-.407 2.827-1.221 3.718-.815.89-1.948 1.336-3.402 1.336-.908 0-1.711-.205-2.408-.616-.697-.41-1.233-.998-1.608-1.766s-.563-1.658-.563-2.672c0-1.576.405-2.807 1.213-3.691.809-.885 1.948-1.328 3.419-1.328 1.406 0 2.52.455 3.34 1.363.82.902 1.23 2.12 1.23 3.656zm-7.075 0c0 2.244.829 3.366 2.488 3.366 1.64 0 2.46-1.122 2.46-3.366 0-2.22-.826-3.331-2.478-3.331-.867 0-1.497.287-1.89.861-.386.575-.58 1.398-.58 2.47zm13.377 5.054c-1.471 0-2.59-.428-3.357-1.283-.762-.862-1.143-2.095-1.143-3.7 0-1.635.399-2.892 1.195-3.771.803-.879 1.96-1.319 3.472-1.319 1.026 0 1.948.19 2.769.572l-.624 1.66c-.873-.339-1.594-.509-2.162-.509-1.682 0-2.523 1.116-2.523 3.349 0 1.09.208 1.91.624 2.46.422.546 1.037.818 1.846.818.92 0 1.79-.228 2.61-.685v1.801a4.068 4.068 0 0 1-1.186.466c-.416.094-.923.14-1.521.14zM160.441 60l-.413-1.353h-.07c-.469.591-.94.996-1.415 1.212-.475.211-1.084.317-1.828.317-.955 0-1.702-.258-2.241-.774-.534-.515-.8-1.245-.8-2.188 0-1.002.372-1.758 1.116-2.268.744-.51 1.878-.788 3.401-.835l1.679-.052v-.519c0-.621-.146-1.084-.439-1.389-.287-.31-.736-.466-1.345-.466-.498 0-.976.074-1.433.22-.457.147-.896.32-1.318.519l-.668-1.477a7.054 7.054 0 0 1 1.731-.624 7.824 7.824 0 0 1 1.776-.22c1.236 0 2.168.27 2.795.81.633.538.949 1.385.949 2.54V60h-1.477zm-3.076-1.406c.75 0 1.351-.208 1.802-.624.457-.422.686-1.011.686-1.767v-.844l-1.249.053c-.972.035-1.681.2-2.126.492-.44.287-.66.73-.66 1.327 0 .434.129.771.387 1.011.258.235.645.352 1.16.352zm11.057-.088c.504 0 1.008-.08 1.512-.237v1.555c-.229.1-.525.182-.888.246a5.78 5.78 0 0 1-1.116.106c-1.957 0-2.936-1.032-2.936-3.094v-5.238h-1.327v-.914l1.424-.756.703-2.057h1.274v2.162h2.769v1.565h-2.769v5.203c0 .498.123.867.37 1.107.251.235.58.352.984.352zM173.95 60h-2.065v-9.72h2.065V60zm-2.188-12.296c0-.369.099-.653.299-.852.205-.2.495-.3.87-.3.363 0 .644.1.843.3.205.199.308.483.308.852 0 .352-.103.63-.308.835-.199.2-.48.299-.843.299-.375 0-.665-.1-.87-.299-.2-.205-.299-.483-.299-.835zm13.772 7.418c0 1.588-.407 2.827-1.222 3.718-.814.89-1.948 1.336-3.401 1.336-.908 0-1.711-.205-2.408-.616-.697-.41-1.233-.998-1.608-1.766s-.563-1.658-.563-2.672c0-1.576.404-2.807 1.213-3.691.809-.885 1.948-1.328 3.419-1.328 1.406 0 2.519.455 3.34 1.363.82.902 1.23 2.12 1.23 3.656zm-7.075 0c0 2.244.829 3.366 2.487 3.366 1.641 0 2.461-1.122 2.461-3.366 0-2.22-.826-3.331-2.478-3.331-.867 0-1.497.287-1.89.861-.387.575-.58 1.398-.58 2.47zM196.468 60h-2.074v-5.977c0-.75-.153-1.31-.457-1.678-.299-.37-.777-.554-1.433-.554-.873 0-1.512.258-1.916.774-.404.515-.607 1.38-.607 2.592V60h-2.065v-9.72h1.617l.29 1.274h.106c.293-.463.709-.82 1.248-1.073a4.18 4.18 0 0 1 1.793-.378c2.332 0 3.498 1.187 3.498 3.56V60zm15.741 0l-1.283-3.568h-4.913L204.756 60h-2.215l4.808-12.902h2.285L214.441 60h-2.232zm-1.837-5.379l-1.204-3.498a23.37 23.37 0 0 1-.369-1.107 26.36 26.36 0 0 1-.317-1.108 19.6 19.6 0 0 1-.694 2.364l-1.16 3.35h3.744zm9.466 5.555c-1.471 0-2.59-.428-3.358-1.283-.761-.862-1.142-2.095-1.142-3.7 0-1.635.398-2.892 1.195-3.771.803-.879 1.96-1.319 3.472-1.319 1.025 0 1.948.19 2.768.572l-.624 1.66c-.873-.339-1.593-.509-2.162-.509-1.681 0-2.522 1.116-2.522 3.349 0 1.09.208 1.91.624 2.46.422.546 1.037.818 1.846.818.919 0 1.79-.228 2.61-.685v1.801a4.074 4.074 0 0 1-1.187.466c-.416.094-.922.14-1.52.14zm8.912 0c-1.471 0-2.59-.428-3.357-1.283-.762-.862-1.143-2.095-1.143-3.7 0-1.635.398-2.892 1.195-3.771.803-.879 1.96-1.319 3.472-1.319 1.025 0 1.948.19 2.769.572l-.624 1.66c-.874-.339-1.594-.509-2.163-.509-1.681 0-2.522 1.116-2.522 3.349 0 1.09.208 1.91.624 2.46.422.546 1.037.818 1.846.818.92 0 1.79-.228 2.61-.685v1.801a4.08 4.08 0 0 1-1.186.466c-.417.094-.923.14-1.521.14zm9.237 0c-1.511 0-2.695-.44-3.55-1.319-.85-.884-1.275-2.1-1.275-3.647 0-1.588.396-2.836 1.187-3.744.791-.908 1.878-1.363 3.26-1.363 1.284 0 2.297.39 3.041 1.17.745.779 1.117 1.851 1.117 3.216v1.117h-6.478c.029.943.284 1.67.765 2.18.48.503 1.157.755 2.03.755.574 0 1.107-.053 1.6-.158a8.608 8.608 0 0 0 1.599-.545v1.679c-.504.24-1.013.41-1.529.51a9.44 9.44 0 0 1-1.767.149zm-.378-8.508c-.656 0-1.183.208-1.582.624-.392.416-.627 1.023-.703 1.82h4.412c-.011-.803-.205-1.41-.58-1.82-.375-.416-.89-.624-1.547-.624zm13.035 5.563c0 .95-.346 1.68-1.038 2.189-.691.504-1.681.756-2.97.756-1.295 0-2.335-.197-3.12-.59v-1.783c1.142.527 2.206.79 3.19.79 1.272 0 1.907-.383 1.907-1.15a.91.91 0 0 0-.211-.616c-.14-.164-.372-.334-.694-.51-.322-.175-.77-.375-1.345-.597-1.119-.434-1.878-.867-2.276-1.301-.393-.434-.589-.996-.589-1.688 0-.832.334-1.476 1.002-1.933.674-.463 1.588-.695 2.742-.695a7.75 7.75 0 0 1 3.243.695l-.668 1.555c-1.048-.433-1.93-.65-2.645-.65-1.09 0-1.635.31-1.635.932 0 .305.141.562.422.773.287.211.908.501 1.863.87.803.31 1.386.595 1.749.853.364.258.633.556.809.896.176.334.264.736.264 1.204zm8.771 0c0 .95-.346 1.68-1.037 2.189-.691.504-1.682.756-2.971.756-1.295 0-2.335-.197-3.12-.59v-1.783c1.143.527 2.206.79 3.191.79 1.271 0 1.907-.383 1.907-1.15a.916.916 0 0 0-.211-.616c-.141-.164-.372-.334-.695-.51-.322-.175-.77-.375-1.344-.597-1.119-.434-1.878-.867-2.277-1.301-.392-.434-.588-.996-.588-1.688 0-.832.334-1.476 1.001-1.933.674-.463 1.588-.695 2.743-.695 1.142 0 2.223.232 3.243.695l-.668 1.555c-1.049-.433-1.931-.65-2.646-.65-1.089 0-1.634.31-1.634.932 0 .305.14.562.421.773.288.211.909.501 1.864.87.802.31 1.385.595 1.749.853.363.258.633.556.808.896.176.334.264.736.264 1.204zM61.475 92h-1.149l-2.016-6.692a21.78 21.78 0 0 1-.322-1.122c-.118-.45-.18-.722-.184-.813-.1.602-.26 1.26-.479 1.976L55.37 92h-1.148l-2.66-9.994h1.231l1.58 6.173c.218.866.377 1.65.478 2.351.123-.834.305-1.65.547-2.447l1.79-6.077h1.23l1.88 6.132c.22.706.404 1.504.554 2.392.087-.647.251-1.435.493-2.365l1.572-6.16h1.23L61.475 92zm7.232.137c-1.107 0-1.982-.338-2.625-1.012-.638-.674-.957-1.611-.957-2.81 0-1.207.296-2.167.889-2.877.597-.711 1.397-1.067 2.4-1.067.938 0 1.68.31 2.228.93.547.615.82 1.428.82 2.44v.718H66.3c.023.88.244 1.547.663 2.003.424.456 1.018.683 1.784.683a6.04 6.04 0 0 0 2.393-.505v1.011a5.805 5.805 0 0 1-1.142.37 6.161 6.161 0 0 1-1.292.116zm-.308-6.816c-.601 0-1.082.196-1.442.588-.355.392-.565.934-.629 1.627h3.917c0-.715-.16-1.262-.478-1.64-.32-.383-.775-.575-1.368-.575zm10.104 5.674h-.062c-.524.761-1.308 1.142-2.351 1.142-.98 0-1.743-.335-2.29-1.005-.543-.67-.814-1.623-.814-2.858s.274-2.194.82-2.877c.547-.684 1.309-1.026 2.284-1.026 1.016 0 1.795.37 2.338 1.108h.089l-.048-.54-.028-.527v-3.049h1.135V92h-.923l-.15-1.005zm-2.27.191c.775 0 1.336-.21 1.682-.628.351-.424.526-1.106.526-2.044v-.24c0-1.061-.177-1.818-.533-2.27-.35-.455-.913-.683-1.688-.683-.666 0-1.176.26-1.531.78-.351.515-.527 1.244-.527 2.187 0 .957.176 1.68.526 2.167.351.488.866.731 1.545.731zM86.761 92h-1.135V81.363h1.135V92zm3.54 0h-1.134v-7.492h1.135V92zm-1.23-9.522c0-.26.064-.45.192-.568a.662.662 0 0 1 .478-.184c.183 0 .34.061.472.184.132.123.198.312.198.568 0 .255-.066.446-.198.574a.669.669 0 0 1-.472.184.662.662 0 0 1-.478-.184c-.128-.128-.192-.32-.192-.575zm4.758 5.687c.196-.278.495-.643.896-1.094l2.42-2.563h1.346L95.456 87.7l3.247 4.3H97.33l-2.645-3.541-.855.738V92h-1.121V81.363h1.121v5.64c0 .25-.018.638-.055 1.162h.055zm9.4 3.972c-1.108 0-1.983-.338-2.625-1.012-.638-.674-.957-1.611-.957-2.81 0-1.207.296-2.167.888-2.877.597-.711 1.397-1.067 2.4-1.067.938 0 1.681.31 2.228.93.547.615.82 1.428.82 2.44v.718h-5.161c.023.88.244 1.547.663 2.003.424.456 1.019.683 1.785.683.806 0 1.604-.168 2.392-.505v1.011a5.8 5.8 0 0 1-1.141.37 6.171 6.171 0 0 1-1.292.116zm-.308-6.816c-.602 0-1.082.196-1.442.588-.356.392-.566.934-.629 1.627h3.917c0-.715-.16-1.262-.479-1.64-.319-.383-.775-.575-1.367-.575zm11.06 5.88c.201 0 .395-.014.581-.042.187-.032.335-.064.445-.096v.869a2.013 2.013 0 0 1-.547.143 3.802 3.802 0 0 1-.643.062c-1.449 0-2.173-.764-2.173-2.29V85.39h-1.074v-.547l1.074-.472.478-1.6h.656v1.737h2.174v.882h-2.174v4.409c0 .451.107.797.322 1.039.214.241.508.362.881.362zm8.997-2.954c0 1.221-.308 2.176-.923 2.864-.616.684-1.465 1.026-2.55 1.026-.67 0-1.265-.157-1.784-.472a3.106 3.106 0 0 1-1.203-1.354c-.283-.587-.424-1.276-.424-2.064 0-1.221.305-2.171.916-2.85.61-.684 1.458-1.026 2.543-1.026 1.048 0 1.88.349 2.495 1.046.62.697.93 1.64.93 2.83zm-5.708 0c0 .957.191 1.686.574 2.188.383.5.945.751 1.688.751s1.306-.248 1.689-.745c.387-.5.581-1.232.581-2.194 0-.952-.194-1.675-.581-2.167-.383-.497-.95-.745-1.702-.745-.743 0-1.304.244-1.682.731-.378.488-.567 1.215-.567 2.181zM133.737 92v-4.847c0-.61-.139-1.066-.417-1.367-.278-.3-.713-.451-1.305-.451-.789 0-1.365.214-1.73.643-.36.428-.54 1.13-.54 2.105V92h-1.135V81.363h1.135v3.22c0 .387-.018.709-.055.964h.069c.223-.36.54-.643.95-.848.415-.21.886-.314 1.415-.314.916 0 1.602.218 2.058.656.46.433.69 1.123.69 2.071V92h-1.135zm6.638.137c-1.107 0-1.982-.338-2.625-1.012-.638-.674-.957-1.611-.957-2.81 0-1.207.296-2.167.889-2.877.597-.711 1.396-1.067 2.399-1.067.939 0 1.682.31 2.229.93.546.615.82 1.428.82 2.44v.718h-5.161c.023.88.244 1.547.663 2.003.424.456 1.018.683 1.784.683a6.04 6.04 0 0 0 2.393-.505v1.011a5.808 5.808 0 0 1-1.142.37 6.158 6.158 0 0 1-1.292.116zm-.308-6.816c-.601 0-1.082.196-1.442.588-.355.392-.565.934-.629 1.627h3.917c0-.715-.159-1.262-.478-1.64-.319-.383-.775-.575-1.368-.575zM146.206 92h-1.135V81.363h1.135V92zm5.893.137c-.488 0-.935-.09-1.34-.267a2.551 2.551 0 0 1-1.012-.834h-.082c.055.438.082.852.082 1.244v3.083h-1.135V84.508h.923l.157 1.025h.055c.292-.41.631-.706 1.019-.889.387-.182.831-.273 1.333-.273.993 0 1.759.34 2.297 1.019.542.679.813 1.631.813 2.857 0 1.23-.276 2.188-.827 2.871-.547.68-1.308 1.019-2.283 1.019zm-.164-6.802c-.766 0-1.32.212-1.662.636-.341.423-.517 1.098-.526 2.023v.253c0 1.053.176 1.807.526 2.263.351.45.914.676 1.689.676.647 0 1.153-.262 1.517-.786.37-.524.554-1.246.554-2.167 0-.934-.184-1.65-.554-2.146-.364-.501-.879-.752-1.544-.752zm7.711-.827h1.216l1.641 4.272c.36.975.583 1.68.67 2.113h.055c.059-.233.182-.63.369-1.19.191-.565.811-2.297 1.859-5.195h1.217l-3.22 8.531c-.319.843-.693 1.44-1.121 1.791-.424.356-.946.533-1.565.533-.347 0-.689-.038-1.026-.116v-.91c.251.056.531.083.841.083.779 0 1.335-.438 1.668-1.313l.417-1.066-3.021-7.533zm14.71 3.74c0 1.22-.307 2.175-.922 2.863-.616.684-1.466 1.026-2.55 1.026-.67 0-1.265-.157-1.784-.472-.52-.314-.921-.766-1.204-1.354-.282-.587-.423-1.276-.423-2.064 0-1.221.305-2.171.916-2.85.61-.684 1.458-1.026 2.543-1.026 1.048 0 1.88.349 2.495 1.046.62.697.929 1.64.929 2.83zm-5.708 0c0 .956.192 1.685.575 2.187.382.5.945.751 1.688.751s1.306-.248 1.689-.745c.387-.5.581-1.232.581-2.194 0-.952-.194-1.675-.581-2.167-.383-.497-.951-.745-1.703-.745-.742 0-1.303.244-1.681.731-.378.488-.568 1.215-.568 2.181zm8.771-3.74v4.86c0 .61.139 1.067.417 1.367.278.301.713.451 1.306.451.783 0 1.355-.214 1.715-.642.365-.428.547-1.128.547-2.099v-3.937h1.135V92h-.936l-.165-1.005h-.061a2.25 2.25 0 0 1-.971.848c-.41.196-.879.294-1.408.294-.911 0-1.595-.217-2.051-.65-.451-.433-.676-1.125-.676-2.078v-4.901h1.148zm14.547.882h-1.907V92h-1.135v-6.61h-1.34v-.513l1.34-.41v-.417c0-1.841.804-2.762 2.413-2.762.396 0 .861.08 1.394.24l-.293.908c-.438-.14-.812-.211-1.122-.211-.428 0-.745.143-.95.43-.205.283-.307.739-.307 1.367v.486h1.907v.882zm2.502 6.61h-1.135v-7.492h1.135V92zm-1.231-9.522c0-.26.064-.45.192-.568a.66.66 0 0 1 .478-.184c.183 0 .34.061.472.184.132.123.198.312.198.568 0 .255-.066.446-.198.574a.668.668 0 0 1-.472.184.66.66 0 0 1-.478-.184c-.128-.128-.192-.32-.192-.575zM202.001 92v-4.847c0-.61-.139-1.066-.417-1.367-.278-.3-.713-.451-1.306-.451-.784 0-1.358.212-1.722.636-.365.423-.547 1.123-.547 2.098V92h-1.135v-7.492h.923l.184 1.025h.055c.233-.369.558-.654.978-.854a3.144 3.144 0 0 1 1.401-.308c.902 0 1.581.219 2.037.656.456.433.684 1.128.684 2.085V92h-1.135zm8.572-1.005h-.061c-.524.761-1.308 1.142-2.352 1.142-.98 0-1.743-.335-2.29-1.005-.542-.67-.813-1.623-.813-2.858s.273-2.194.82-2.877c.547-.684 1.308-1.026 2.283-1.026 1.016 0 1.796.37 2.338 1.108h.089l-.048-.54-.027-.527v-3.049h1.134V92h-.922l-.151-1.005zm-2.269.191c.774 0 1.335-.21 1.681-.628.351-.424.527-1.106.527-2.044v-.24c0-1.061-.178-1.818-.533-2.27-.351-.455-.914-.683-1.689-.683-.665 0-1.176.26-1.531.78-.351.515-.527 1.244-.527 2.187 0 .957.176 1.68.527 2.167.351.488.866.731 1.545.731zm11.812.014c.201 0 .394-.014.581-.04.187-.033.335-.065.445-.096v.868a2.013 2.013 0 0 1-.547.143 3.802 3.802 0 0 1-.643.062c-1.449 0-2.174-.764-2.174-2.29V85.39h-1.073v-.547l1.073-.472.479-1.6h.656v1.737h2.174v.882h-2.174v4.409c0 .451.107.797.321 1.039.215.241.509.362.882.362zm7.656.8v-4.847c0-.61-.139-1.066-.417-1.367-.278-.3-.713-.451-1.305-.451-.789 0-1.365.214-1.73.643-.36.428-.54 1.13-.54 2.105V92h-1.134V81.363h1.134v3.22c0 .387-.018.709-.054.964h.068c.223-.36.54-.643.95-.848.415-.21.887-.314 1.415-.314.916 0 1.602.218 2.058.656.46.433.69 1.123.69 2.071V92h-1.135zm6.638.137c-1.107 0-1.982-.338-2.625-1.012-.638-.674-.957-1.611-.957-2.81 0-1.207.296-2.167.889-2.877.597-.711 1.397-1.067 2.399-1.067.939 0 1.682.31 2.229.93.547.615.82 1.428.82 2.44v.718h-5.161c.023.88.244 1.547.663 2.003.424.456 1.019.683 1.784.683a6.04 6.04 0 0 0 2.393-.505v1.011a5.808 5.808 0 0 1-1.142.37 6.158 6.158 0 0 1-1.292.116zm-.307-6.816c-.602 0-1.083.196-1.443.588-.355.392-.565.934-.629 1.627h3.917c0-.715-.159-1.262-.478-1.64-.319-.383-.775-.575-1.367-.575zm12.126-.936c.985 0 1.748.337 2.291 1.011.546.67.82 1.62.82 2.851 0 1.23-.276 2.188-.827 2.871-.547.68-1.308 1.019-2.284 1.019a3.31 3.31 0 0 1-1.339-.267 2.545 2.545 0 0 1-1.012-.834h-.082l-.239.964h-.814V81.363h1.135v2.584c0 .579-.018 1.099-.055 1.559h.055c.529-.748 1.312-1.121 2.351-1.121zm-.164.95c-.774 0-1.333.223-1.674.67-.342.442-.513 1.19-.513 2.242 0 1.053.175 1.807.526 2.263.351.45.914.676 1.689.676.697 0 1.217-.252 1.558-.758.342-.51.513-1.242.513-2.195 0-.975-.171-1.702-.513-2.18-.341-.479-.87-.718-1.586-.718zm8.429 6.802c-1.107 0-1.982-.338-2.625-1.012-.638-.674-.957-1.611-.957-2.81 0-1.207.296-2.167.889-2.877.597-.711 1.397-1.067 2.399-1.067.939 0 1.682.31 2.229.93.547.615.82 1.428.82 2.44v.718h-5.161c.023.88.244 1.547.663 2.003.424.456 1.019.683 1.784.683a6.04 6.04 0 0 0 2.393-.505v1.011a5.808 5.808 0 0 1-1.142.37 6.158 6.158 0 0 1-1.292.116zm-.307-6.816c-.602 0-1.083.196-1.443.588-.355.392-.565.934-.629 1.627h3.917c0-.715-.159-1.262-.478-1.64-.319-.383-.775-.575-1.367-.575zm9.836 4.635c0 .697-.259 1.235-.779 1.613-.519.379-1.249.568-2.187.568-.994 0-1.769-.157-2.325-.472v-1.053c.36.183.746.326 1.156.431.414.105.813.157 1.196.157.592 0 1.048-.093 1.367-.28.319-.192.479-.48.479-.868 0-.292-.128-.54-.383-.745-.251-.21-.743-.456-1.477-.739-.697-.26-1.194-.485-1.49-.676a2.106 2.106 0 0 1-.656-.663 1.745 1.745 0 0 1-.212-.882c0-.611.248-1.092.745-1.443.497-.355 1.178-.533 2.044-.533a5.98 5.98 0 0 1 2.365.492l-.403.923c-.752-.31-1.433-.465-2.044-.465-.538 0-.943.085-1.217.253-.273.169-.41.401-.41.698 0 .2.05.37.15.512.105.141.272.276.499.403.228.128.666.313 1.313.554.889.324 1.488.65 1.798.978.314.328.471.74.471 1.237zm4.273 1.244c.2 0 .394-.014.581-.04.187-.033.335-.065.444-.096v.868a2.003 2.003 0 0 1-.547.143 3.8 3.8 0 0 1-.642.062c-1.449 0-2.174-.764-2.174-2.29V85.39h-1.073v-.547l1.073-.472.479-1.6h.656v1.737h2.174v.882h-2.174v4.409c0 .451.107.797.321 1.039.214.241.508.362.882.362zm-168.185 12.171c.333 0 .632.027.896.082l-.157 1.053a3.899 3.899 0 0 0-.821-.103c-.606 0-1.125.246-1.558.739-.429.492-.643 1.105-.643 1.838V111h-1.135v-7.492h.937l.13 1.388h.054c.278-.488.613-.864 1.005-1.128a2.258 2.258 0 0 1 1.292-.397zm5.462 7.766c-1.107 0-1.982-.338-2.625-1.012-.638-.674-.957-1.611-.957-2.81 0-1.207.296-2.167.889-2.877.597-.711 1.397-1.067 2.399-1.067.939 0 1.682.31 2.229.93.547.615.82 1.428.82 2.44v.718h-5.161c.023.88.244 1.547.663 2.003.424.456 1.019.684 1.784.684.807 0 1.604-.169 2.393-.506v1.011a5.761 5.761 0 0 1-1.142.37 6.193 6.193 0 0 1-1.292.116zm-.307-6.816c-.602 0-1.083.196-1.443.588-.355.392-.565.934-.629 1.627h3.917c0-.715-.159-1.262-.478-1.64-.319-.383-.775-.575-1.367-.575zm9.837 4.635c0 .697-.26 1.235-.78 1.613-.519.379-1.248.568-2.187.568-.994 0-1.768-.158-2.324-.472v-1.053c.36.183.745.326 1.155.431.415.105.813.157 1.196.157.593 0 1.048-.093 1.367-.28.319-.191.479-.481.479-.868 0-.292-.128-.54-.383-.745-.251-.21-.743-.456-1.477-.739-.697-.259-1.194-.485-1.49-.676a2.118 2.118 0 0 1-.656-.663 1.75 1.75 0 0 1-.212-.882c0-.611.248-1.092.745-1.443.497-.355 1.178-.533 2.044-.533a5.98 5.98 0 0 1 2.365.492l-.403.923c-.752-.31-1.433-.465-2.044-.465-.538 0-.943.085-1.217.253-.273.169-.41.401-.41.697 0 .201.05.372.15.513.105.141.272.276.5.404.227.127.665.312 1.312.553.889.324 1.488.65 1.798.978.314.328.472.74.472 1.237zm4.272 1.244c.201 0 .394-.013.581-.041a4.11 4.11 0 0 0 .444-.096v.869a2.004 2.004 0 0 1-.546.143 3.816 3.816 0 0 1-.643.062c-1.449 0-2.174-.764-2.174-2.29v-4.457h-1.073v-.547l1.073-.472.479-1.6h.656v1.737h2.174v.882h-2.174v4.409c0 .451.107.797.321 1.039.214.241.508.362.882.362zm7.137.8l-.226-1.066h-.055c-.373.469-.747.788-1.121.957-.369.164-.831.246-1.387.246-.743 0-1.327-.192-1.75-.575-.42-.382-.629-.927-.629-1.633 0-1.513 1.21-2.306 3.63-2.379l1.271-.041v-.465c0-.588-.127-1.021-.383-1.299-.25-.282-.654-.424-1.21-.424-.624 0-1.33.192-2.119.575l-.348-.869c.369-.2.772-.357 1.21-.471a5.29 5.29 0 0 1 1.326-.171c.893 0 1.554.198 1.982.594.433.397.65 1.033.65 1.908V111h-.841zm-2.564-.8c.707 0 1.26-.193 1.661-.581.406-.387.609-.93.609-1.627v-.677l-1.135.048c-.902.032-1.554.173-1.955.424-.397.246-.595.631-.595 1.155 0 .411.123.723.369.937.251.214.6.321 1.046.321zm6.816-6.692v4.86c0 .611.139 1.067.417 1.367.278.301.713.452 1.305.452.784 0 1.356-.215 1.716-.643.365-.428.547-1.128.547-2.099v-3.937h1.135V111h-.937l-.164-1.005h-.061a2.262 2.262 0 0 1-.971.848c-.41.196-.88.294-1.408.294-.912 0-1.595-.217-2.051-.65-.451-.433-.677-1.125-.677-2.078v-4.901h1.149zm10.951-.137c.333 0 .631.027.895.082l-.157 1.053a3.89 3.89 0 0 0-.82-.103c-.606 0-1.126.246-1.559.739-.428.492-.642 1.105-.642 1.838V111h-1.135v-7.492h.936l.13 1.388h.055c.278-.488.613-.864 1.005-1.128a2.256 2.256 0 0 1 1.292-.397zm6.904 7.629l-.225-1.066h-.055c-.374.469-.748.788-1.121.957-.369.164-.832.246-1.388.246-.743 0-1.326-.192-1.75-.575-.419-.382-.629-.927-.629-1.633 0-1.513 1.21-2.306 3.63-2.379l1.272-.041v-.465c0-.588-.128-1.021-.383-1.299-.251-.282-.654-.424-1.21-.424-.625 0-1.331.192-2.119.575l-.349-.869c.369-.2.772-.357 1.21-.471a5.29 5.29 0 0 1 1.326-.171c.893 0 1.554.198 1.983.594.432.397.649 1.033.649 1.908V111h-.841zm-2.563-.8c.706 0 1.26-.193 1.661-.581.405-.387.608-.93.608-1.627v-.677l-1.135.048c-.902.032-1.554.173-1.955.424-.396.246-.594.631-.594 1.155 0 .411.123.723.369.937.25.214.599.321 1.046.321zm10.876.8v-4.847c0-.61-.139-1.066-.417-1.367-.278-.301-.714-.451-1.306-.451-.784 0-1.358.212-1.723.636-.364.424-.547 1.123-.547 2.098V111h-1.134v-7.492h.923l.184 1.025h.055c.232-.369.558-.654.977-.854.42-.205.887-.308 1.402-.308.902 0 1.581.219 2.037.656.456.433.683 1.128.683 2.085V111h-1.134zm5.892-.8c.201 0 .394-.013.581-.041.187-.032.335-.064.445-.096v.869a2.013 2.013 0 0 1-.547.143 3.806 3.806 0 0 1-.643.062c-1.449 0-2.174-.764-2.174-2.29v-4.457h-1.073v-.547l1.073-.472.479-1.6h.656v1.737h2.174v.882h-2.174v4.409c0 .451.107.797.321 1.039.215.241.509.362.882.362zm11.293.8v-4.847c0-.61-.139-1.066-.417-1.367-.278-.301-.713-.451-1.305-.451-.784 0-1.359.212-1.723.636-.365.424-.547 1.123-.547 2.098V111h-1.135v-7.492h.923l.185 1.025h.054c.233-.369.559-.654.978-.854a3.145 3.145 0 0 1 1.401-.308c.903 0 1.582.219 2.037.656.456.433.684 1.128.684 2.085V111h-1.135zm6.638.137c-1.108 0-1.983-.338-2.625-1.012-.638-.674-.957-1.611-.957-2.81 0-1.207.296-2.167.889-2.877.597-.711 1.396-1.067 2.399-1.067.939 0 1.682.31 2.228.93.547.615.821 1.428.821 2.44v.718h-5.161c.022.88.243 1.547.663 2.003.424.456 1.018.684 1.784.684.807 0 1.604-.169 2.392-.506v1.011a5.753 5.753 0 0 1-1.141.37 6.2 6.2 0 0 1-1.292.116zm-.308-6.816c-.601 0-1.082.196-1.442.588-.356.392-.565.934-.629 1.627h3.917c0-.715-.16-1.262-.479-1.64-.319-.383-.774-.575-1.367-.575zm9.612 6.679l-.226-1.066h-.055c-.373.469-.747.788-1.121.957-.369.164-.831.246-1.387.246-.743 0-1.327-.192-1.75-.575-.42-.382-.629-.927-.629-1.633 0-1.513 1.21-2.306 3.63-2.379l1.271-.041v-.465c0-.588-.128-1.021-.383-1.299-.25-.282-.654-.424-1.21-.424-.624 0-1.331.192-2.119.575l-.349-.869c.37-.2.773-.357 1.21-.471a5.299 5.299 0 0 1 1.327-.171c.893 0 1.554.198 1.982.594.433.397.649 1.033.649 1.908V111h-.84zm-2.564-.8c.706 0 1.26-.193 1.661-.581.406-.387.609-.93.609-1.627v-.677l-1.135.048c-.902.032-1.554.173-1.955.424-.397.246-.595.631-.595 1.155 0 .411.123.723.369.937.251.214.6.321 1.046.321zm9.167-6.829c.333 0 .631.027.896.082l-.158 1.053a3.89 3.89 0 0 0-.82-.103c-.606 0-1.126.246-1.559.739-.428.492-.642 1.105-.642 1.838V111h-1.135v-7.492h.937l.13 1.388h.054c.278-.488.613-.864 1.005-1.128a2.259 2.259 0 0 1 1.292-.397zm4.744.137h1.217l1.641 4.272c.36.976.583 1.68.67 2.113h.054c.06-.233.183-.629.369-1.19.192-.565.812-2.297 1.86-5.195h1.217l-3.22 8.531c-.319.843-.693 1.44-1.121 1.791-.424.356-.946.533-1.566.533-.346 0-.688-.038-1.025-.116v-.909c.251.055.531.082.841.082.779 0 1.335-.438 1.668-1.313l.417-1.066-3.022-7.533zm14.711 3.739c0 1.221-.307 2.176-.923 2.864-.615.684-1.465 1.026-2.549 1.026-.67 0-1.265-.158-1.785-.472-.519-.314-.92-.766-1.203-1.353-.282-.588-.424-1.277-.424-2.065 0-1.221.306-2.171.916-2.851.611-.683 1.459-1.025 2.543-1.025 1.049 0 1.88.349 2.496 1.046.619.697.929 1.641.929 2.83zm-5.708 0c0 .957.192 1.686.574 2.188.383.501.946.752 1.689.752.743 0 1.306-.249 1.688-.746.388-.501.581-1.232.581-2.194 0-.952-.193-1.675-.581-2.167-.382-.497-.95-.745-1.702-.745-.743 0-1.303.244-1.681.731-.379.488-.568 1.215-.568 2.181zm8.771-3.739v4.86c0 .611.139 1.067.417 1.367.278.301.713.452 1.305.452.784 0 1.356-.215 1.716-.643.365-.428.547-1.128.547-2.099v-3.937h1.135V111h-.937l-.164-1.005h-.061a2.262 2.262 0 0 1-.971.848c-.41.196-.88.294-1.408.294-.912 0-1.595-.217-2.051-.65-.451-.433-.677-1.125-.677-2.078v-4.901h1.149z" fill="#414141"/><rect x="13" y="452" width="295" height="48" rx="24" fill="#73C088"/><path d="M59.326 476.013l3.041-5.863h2.285l-4.28 7.867V483h-2.11v-4.913L54 470.15h2.285l3.041 5.863zM73.617 483H66.35v-12.85h7.268v1.776H68.45v3.498h4.843v1.758H68.45v4.034h5.168V483zm10.195-3.489c0 1.142-.413 2.039-1.239 2.689-.826.651-1.966.976-3.419.976s-2.642-.226-3.568-.677v-1.986a9.741 9.741 0 0 0 1.863.65 7.984 7.984 0 0 0 1.846.237c.832 0 1.444-.158 1.837-.474.398-.317.597-.741.597-1.275 0-.48-.181-.887-.544-1.221-.364-.334-1.114-.73-2.25-1.187-1.172-.474-1.999-1.016-2.479-1.626-.48-.609-.72-1.342-.72-2.197 0-1.072.38-1.916 1.142-2.531.762-.616 1.784-.923 3.067-.923 1.23 0 2.455.269 3.674.808l-.668 1.714c-1.142-.48-2.162-.72-3.058-.72-.68 0-1.196.149-1.547.448-.352.293-.528.682-.528 1.169 0 .334.07.621.211.861.14.234.372.457.695.668.322.211.902.489 1.74.835.943.393 1.635.759 2.074 1.099.44.34.762.723.967 1.151.205.428.308.932.308 1.512zm4.413 1.599c-.282 1.09-.797 2.494-1.547 4.21h-1.52c.403-1.582.705-3.052.904-4.412h2.03l.133.202zm9.65 1.89h-2.083v-12.85h7.251v1.776h-5.168v4.016h4.843v1.785h-4.843V483zm7.497 0v-12.85h2.101V483h-2.101zm16.207 0h-2.575l-6.319-10.239h-.071l.044.571c.082 1.09.123 2.086.123 2.988V483h-1.907v-12.85h2.549l6.302 10.187h.052a63.863 63.863 0 0 1-.07-1.468 51.606 51.606 0 0 1-.053-1.986v-6.733h1.925V483zm13.843-6.548c0 2.121-.589 3.744-1.767 4.869-1.177 1.119-2.874 1.679-5.089 1.679h-3.594v-12.85h3.972c2.045 0 3.636.551 4.773 1.653 1.137 1.101 1.705 2.651 1.705 4.649zm-2.215.07c0-3.076-1.438-4.614-4.315-4.614h-1.82v9.325h1.494c3.094 0 4.641-1.57 4.641-4.711zm11.76-.395h1.459c.978 0 1.687-.182 2.127-.545.439-.363.659-.902.659-1.617 0-.727-.237-1.248-.712-1.565-.475-.316-1.189-.474-2.145-.474h-1.388v4.201zm0 1.74V483h-2.101v-12.85h3.63c1.658 0 2.886.311 3.683.932.797.621 1.195 1.559 1.195 2.813 0 1.599-.832 2.739-2.496 3.418l3.63 5.687h-2.391l-3.076-5.133h-2.074zM161.648 483h-7.268v-12.85h7.268v1.776h-5.168v3.498h4.843v1.758h-4.843v4.034h5.168V483zm10.196-3.489c0 1.142-.413 2.039-1.24 2.689-.826.651-1.965.976-3.418.976-1.454 0-2.643-.226-3.569-.677v-1.986a9.743 9.743 0 0 0 1.863.65 7.994 7.994 0 0 0 1.846.237c.832 0 1.445-.158 1.837-.474.399-.317.598-.741.598-1.275 0-.48-.182-.887-.545-1.221-.363-.334-1.113-.73-2.25-1.187-1.172-.474-1.998-1.016-2.479-1.626-.48-.609-.72-1.342-.72-2.197 0-1.072.38-1.916 1.142-2.531.762-.616 1.784-.923 3.068-.923 1.23 0 2.455.269 3.673.808l-.668 1.714c-1.142-.48-2.162-.72-3.058-.72-.68 0-1.195.149-1.547.448-.352.293-.527.682-.527 1.169 0 .334.07.621.211.861.14.234.372.457.694.668.322.211.902.489 1.74.835.943.393 1.635.759 2.074 1.099.44.34.762.723.967 1.151.205.428.308.932.308 1.512zM178.77 483h-2.101v-11.048h-3.779v-1.802h9.659v1.802h-3.779V483zm13.728 0l-1.283-3.568h-4.913L185.045 483h-2.215l4.808-12.902h2.285L194.73 483h-2.232zm-1.837-5.379l-1.204-3.498a27.731 27.731 0 0 1-.686-2.215 19.554 19.554 0 0 1-.694 2.364l-1.16 3.349h3.744zm15.838-7.471v8.315c0 .949-.205 1.781-.615 2.496-.405.709-.993 1.257-1.767 1.643-.767.381-1.687.572-2.76.572-1.593 0-2.833-.422-3.717-1.266-.885-.844-1.328-2.004-1.328-3.48v-8.28h2.11v8.13c0 1.061.246 1.843.738 2.347s1.248.756 2.268.756c1.98 0 2.97-1.04 2.97-3.12v-8.113h2.101zm5.388 5.977h1.459c.978 0 1.687-.182 2.127-.545.439-.363.659-.902.659-1.617 0-.727-.237-1.248-.712-1.565-.475-.316-1.19-.474-2.145-.474h-1.388v4.201zm0 1.74V483h-2.101v-12.85h3.63c1.658 0 2.886.311 3.683.932.797.621 1.195 1.559 1.195 2.813 0 1.599-.832 2.739-2.496 3.418l3.63 5.687h-2.391l-3.076-5.133h-2.074zM229.271 483l-1.283-3.568h-4.913L221.818 483h-2.214l4.807-12.902h2.285L231.504 483h-2.233zm-1.836-5.379l-1.205-3.498a25.728 25.728 0 0 1-.685-2.215c-.158.721-.39 1.509-.694 2.364l-1.161 3.349h3.745zm16.47 5.379h-2.575l-6.319-10.239h-.071l.044.571c.082 1.09.123 2.086.123 2.988V483H233.2v-12.85h2.549l6.302 10.187h.053a55.483 55.483 0 0 1-.071-1.468 51.606 51.606 0 0 1-.053-1.986v-6.733h1.925V483zm7.831 0h-2.1v-11.048h-3.78v-1.802h9.66v1.802h-3.78V483zm13.166-3.489c0 1.142-.413 2.039-1.239 2.689-.826.651-1.966.976-3.419.976s-2.642-.226-3.568-.677v-1.986a9.743 9.743 0 0 0 1.863.65 7.981 7.981 0 0 0 1.846.237c.832 0 1.444-.158 1.837-.474.398-.317.597-.741.597-1.275 0-.48-.181-.887-.545-1.221-.363-.334-1.113-.73-2.25-1.187-1.171-.474-1.998-1.016-2.478-1.626-.481-.609-.721-1.342-.721-2.197 0-1.072.381-1.916 1.143-2.531.761-.616 1.784-.923 3.067-.923 1.231 0 2.455.269 3.674.808l-.668 1.714c-1.143-.48-2.162-.72-3.059-.72-.679 0-1.195.149-1.546.448-.352.293-.528.682-.528 1.169 0 .334.071.621.211.861.141.234.372.457.694.668.323.211.903.489 1.741.835.943.393 1.634.759 2.074 1.099.439.34.762.723.967 1.151.205.428.307.932.307 1.512z" fill="#fff"/><path d="M121.804 543h-1.705l-7.023-10.784h-.07c.094 1.265.14 2.426.14 3.48V543h-1.379v-12.85h1.687l7.005 10.741h.07c-.011-.159-.038-.665-.079-1.521a27.094 27.094 0 0 1-.044-1.846v-7.374h1.398V543zm14.686-6.442c0 2.056-.521 3.673-1.564 4.851-1.037 1.178-2.482 1.767-4.333 1.767-1.893 0-3.355-.577-4.386-1.732-1.025-1.16-1.538-2.795-1.538-4.904 0-2.092.516-3.712 1.547-4.86 1.031-1.155 2.496-1.732 4.394-1.732 1.846 0 3.287.586 4.325 1.758 1.037 1.172 1.555 2.789 1.555 4.852zm-10.239 0c0 1.74.369 3.061 1.107 3.963.745.897 1.823 1.345 3.235 1.345 1.424 0 2.499-.448 3.225-1.345.727-.896 1.09-2.217 1.09-3.963 0-1.729-.363-3.038-1.09-3.929-.72-.897-1.79-1.345-3.208-1.345-1.423 0-2.507.451-3.252 1.354-.738.896-1.107 2.203-1.107 3.92zM147.995 543h-1.494v-11.522h-4.069v-1.328h9.632v1.328h-4.069V543zm15.768 0h-1.494v-6.047h-6.768V543h-1.494v-12.85h1.494v5.467h6.768v-5.467h1.494V543zm11.61 0l-1.6-4.087h-5.15L167.041 543h-1.512l5.08-12.902h1.257L176.92 543h-1.547zm-2.065-5.432l-1.495-3.981a21.406 21.406 0 0 1-.597-1.855 16.714 16.714 0 0 1-.554 1.855l-1.512 3.981h4.158zM188.724 543h-1.705l-7.023-10.784h-.07c.094 1.265.14 2.426.14 3.48V543h-1.379v-12.85h1.687l7.005 10.741h.07c-.011-.159-.038-.665-.079-1.521-.041-.861-.056-1.476-.044-1.846v-7.374h1.398V543zm12.814 0h-1.758l-4.684-6.231-1.345 1.195V543h-1.494v-12.85h1.494v6.372l5.827-6.372h1.767l-5.168 5.581 5.361 7.269zm9.026-3.419c0 1.131-.41 2.013-1.23 2.646-.82.632-1.934.949-3.34.949-1.523 0-2.695-.197-3.515-.589v-1.441a9.3 9.3 0 0 0 1.722.527 9.061 9.061 0 0 0 1.846.193c.996 0 1.746-.187 2.25-.562.504-.381.756-.908.756-1.582 0-.446-.091-.809-.273-1.09-.176-.287-.474-.551-.896-.791-.416-.24-1.052-.513-1.907-.818-1.196-.427-2.051-.934-2.567-1.52-.51-.586-.764-1.351-.764-2.294 0-.99.372-1.778 1.116-2.364.744-.586 1.728-.879 2.953-.879 1.277 0 2.452.234 3.524.703l-.466 1.301c-1.06-.446-2.091-.668-3.093-.668-.791 0-1.409.17-1.855.51-.445.339-.668.811-.668 1.415 0 .445.082.811.246 1.098.164.281.44.542.826.782.393.235.991.496 1.793.783 1.348.48 2.274.996 2.778 1.547.51.55.764 1.265.764 2.144z" fill="#73C088"/><ellipse cx="161.5" cy="256.05" rx="99.5" ry="99.325" fill="#FFFDFC"/><mask id="a" maskUnits="userSpaceOnUse" x="62" y="156" width="199" height="200"><ellipse cx="161.5" cy="256.05" rx="99.5" ry="99.325" fill="#FFEDDE"/></mask><g mask="url(#a)"><rect x="162" y="279.509" width="140" height="115.796" rx="3" fill="#9AE5AF"/><rect x="176" y="301.47" width="126" height="115.796" rx="3" fill="#73C088"/><rect x="37" y="260.542" width="106" height="115.796" rx="3" fill="#73C088"/><rect x="171" y="144.746" width="139" height="115.796" rx="3" fill="#9AE5AF"/><rect x="176" y="134.763" width="117" height="115.796" rx="3" fill="#73C088"/><rect x="37" y="125.779" width="115" height="115.796" rx="3" fill="#9AE5AF"/><rect x="44" y="108.809" width="108" height="115.796" rx="3" fill="#73C088"/><circle r="33.469" transform="rotate(-44.95 418.34 -66.849)" stroke="#414141" stroke-width="3"/><path fill="#414141" d="M191.417 300.718l4.243-4.235 6.364 6.352-4.243 4.236z"/><rect width="12.989" height="38.966" rx="2" transform="rotate(-44.95 472.016 -80.674)" fill="#265031"/><g clip-path="url(#b)"><path d="M182.649 253.24a16.718 16.718 0 0 0-11.887-4.915 16.716 16.716 0 0 0-11.887 4.915c-5.875 5.865-6.606 16.899-1.581 23.585l13.468 19.416 13.448-19.389c5.045-6.713 4.315-17.747-1.561-23.612z" fill="#58A36C"/><path d="M170.917 258.826c-3.382 0-6.136 2.748-6.136 6.125s2.754 6.126 6.136 6.126c3.383 0 6.137-2.749 6.137-6.126 0-3.377-2.754-6.125-6.137-6.125z" fill="#FFFDFC"/></g><path d="M124.044 182.803a10.04 10.04 0 0 0-7.14-2.953 10.04 10.04 0 0 0-7.141 2.953c-3.529 3.523-3.968 10.151-.95 14.167l8.091 11.663 8.078-11.647c3.03-4.032 2.592-10.66-.938-14.183z" fill="#58A36C"/><path d="M116.997 186.158a3.688 3.688 0 0 0-3.686 3.68 3.687 3.687 0 0 0 3.686 3.679 3.687 3.687 0 0 0 3.686-3.679 3.688 3.688 0 0 0-3.686-3.68z" fill="#73C088"/><path d="M205.239 186.63a10.04 10.04 0 0 0-7.141-2.953 10.04 10.04 0 0 0-7.14 2.953c-3.53 3.523-3.968 10.151-.95 14.167l8.09 11.664 8.079-11.647c3.03-4.033 2.591-10.661-.938-14.184z" fill="#58A36C"/><path d="M198.192 189.986a3.687 3.687 0 0 0-3.686 3.679 3.688 3.688 0 0 0 3.686 3.68 3.688 3.688 0 0 0 3.686-3.68 3.687 3.687 0 0 0-3.686-3.679z" fill="#73C088"/><path d="M97.239 244.528a10.04 10.04 0 0 0-7.14-2.952 10.04 10.04 0 0 0-7.141 2.952c-3.53 3.523-3.968 10.152-.95 14.168l8.09 11.663 8.079-11.647c3.03-4.032 2.591-10.661-.938-14.184z" fill="#58A36C"/><path d="M90.192 247.895a3.69 3.69 0 0 0-3.686 3.686 3.69 3.69 0 0 0 3.686 3.686 3.69 3.69 0 0 0 3.686-3.686 3.69 3.69 0 0 0-3.686-3.686z" fill="#FFFDFC"/></g><defs><clipPath id="b"><path fill="#fff" transform="translate(146.761 248.325)" d="M0 0h48v47.916H0z"/></clipPath></defs></svg>