<svg width="320" height="569" viewBox="0 0 320 569" fill="none" xmlns="http://www.w3.org/2000/svg"><path fill="#fff" d="M0 0h320v569H0z"/><path d="M75.203 30.15h3.815c1.77 0 3.046.258 3.832.774.79.515 1.186 1.33 1.186 2.443 0 .75-.193 1.374-.58 1.872-.387.498-.943.812-1.67.94v.089c.903.17 1.565.506 1.986 1.01.428.498.642 1.175.642 2.03 0 1.155-.404 2.06-1.213 2.716-.803.65-1.922.976-3.357.976h-4.64V30.15zm2.1 5.309h2.022c.88 0 1.52-.138 1.925-.413.404-.281.606-.756.606-1.424 0-.603-.22-1.04-.659-1.31-.433-.269-1.125-.404-2.074-.404h-1.82v3.551zm0 1.705v4.07h2.233c.879 0 1.541-.168 1.986-.502.452-.34.677-.873.677-1.6 0-.667-.228-1.162-.685-1.484-.457-.323-1.152-.484-2.083-.484h-2.127zm15.593-3.885h2.267l-4.016 4.685L95.505 43h-2.373l-4.201-4.93V43h-2.066v-9.72h2.066v4.719l3.963-4.72zM105.103 43h-2.083v-8.103h-2.681c-.164 2.085-.387 3.714-.668 4.886-.275 1.172-.639 2.027-1.09 2.567-.445.539-1.025.808-1.74.808-.451 0-.83-.064-1.134-.193v-1.617c.217.082.434.123.65.123.598 0 1.067-.671 1.407-2.013.345-1.348.615-3.407.808-6.179h6.531V43zm15.943-4.878c0 1.594-.39 2.836-1.169 3.727-.774.884-1.855 1.327-3.243 1.327-1.278 0-2.294-.375-3.05-1.125-.75-.756-1.187-1.837-1.31-3.243h-2.144V43h-2.066v-9.72h2.066v3.902h2.162c.146-1.29.598-2.291 1.353-3.006.762-.715 1.77-1.073 3.024-1.073 1.348 0 2.414.455 3.199 1.363.785.902 1.178 2.12 1.178 3.656zm-6.662 0c0 1.108.176 1.945.527 2.514.358.568.938.852 1.74.852.797 0 1.374-.284 1.732-.852.357-.569.536-1.407.536-2.514 0-1.096-.179-1.925-.536-2.487-.358-.563-.935-.844-1.732-.844-.802 0-1.382.281-1.74.844-.351.562-.527 1.391-.527 2.487zm10.881-4.843v3.551c0 .996.515 1.494 1.546 1.494a5.31 5.31 0 0 0 1.459-.202c.475-.14.985-.363 1.53-.668V33.28h2.065V43H129.8v-4.122a7.486 7.486 0 0 1-1.653.782 5.802 5.802 0 0 1-1.731.246c-1.014 0-1.805-.26-2.373-.782-.568-.527-.853-1.263-.853-2.206v-3.639h2.075zm11.531 0v4.984c0 .58-.047 1.432-.141 2.557l4.878-7.54h2.523V43h-1.987v-4.895c0-.27.015-.707.044-1.31.035-.604.065-1.043.088-1.318L137.342 43h-2.523v-9.72h1.978zm17.508 0v1.617h-3.164V43h-2.075v-8.103h-3.164v-1.618h8.403zm3.937 3.885h2.435c2.713 0 4.069.938 4.069 2.813 0 .99-.346 1.743-1.037 2.258-.691.51-1.702.765-3.032.765h-4.5v-9.72h2.065v3.884zm4.43 2.865c0-.486-.185-.826-.554-1.02-.369-.193-.89-.29-1.564-.29h-2.312v2.752h2.347c.68 0 1.195-.123 1.547-.37.357-.245.536-.603.536-1.072zm18.369 6.407h-1.925V43h-6.662v3.437h-1.907V41.4h.791c.691-.99 1.239-2.185 1.643-3.585.411-1.407.654-2.918.73-4.536h5.906V41.4h1.424v5.037zm-3.454-5.036v-6.539h-2.092a17.814 17.814 0 0 1-.703 3.569c-.352 1.172-.782 2.162-1.292 2.97h4.087zm13.878-3.278c0 1.588-.407 2.827-1.222 3.718-.814.89-1.948 1.336-3.401 1.336-.908 0-1.711-.205-2.408-.616-.698-.41-1.234-.998-1.609-1.766s-.562-1.658-.562-2.672c0-1.576.404-2.807 1.213-3.691.808-.885 1.948-1.328 3.419-1.328 1.406 0 2.519.455 3.339 1.363.821.902 1.231 2.12 1.231 3.656zm-7.075 0c0 2.244.829 3.366 2.487 3.366 1.641 0 2.461-1.122 2.461-3.366 0-2.22-.826-3.331-2.479-3.331-.867 0-1.497.287-1.889.861-.387.575-.58 1.398-.58 2.47zm13.377 5.054c-1.471 0-2.59-.428-3.358-1.283-.762-.862-1.142-2.095-1.142-3.7 0-1.635.398-2.892 1.195-3.771.803-.879 1.96-1.319 3.472-1.319 1.025 0 1.948.19 2.768.572l-.624 1.66c-.873-.339-1.594-.509-2.162-.509-1.682 0-2.522 1.116-2.522 3.349 0 1.09.208 1.91.624 2.46.421.546 1.037.818 1.845.818.92 0 1.79-.228 2.611-.685v1.801c-.37.217-.765.372-1.187.466-.416.094-.923.14-1.52.14zm12.295-9.897v1.617h-3.164V43h-2.074v-8.103h-3.164v-1.618h8.402zm.396 0h2.25l1.978 5.511c.298.785.498 1.523.597 2.215h.071c.052-.322.149-.712.29-1.17.14-.462.884-2.648 2.232-6.556h2.232l-4.157 11.013c-.756 2.021-2.015 3.032-3.779 3.032-.457 0-.902-.05-1.336-.15V45.54c.31.07.665.105 1.063.105.997 0 1.697-.577 2.101-1.73l.36-.915-3.902-9.72zm19.626 0V43h-2.074v-8.086h-4.36V43h-2.065v-9.72h8.499zm13.667 0h2.268l-4.017 4.685 4.36 5.036h-2.373l-4.201-4.93V43h-2.065v-9.72h2.065v4.719l3.964-4.72zM85.97 63.022l.114-.421c.24-.873.448-1.544.624-2.013l2.18-5.309h2.75V65h-1.907v-7.849l-.158.528c-.263.943-.486 1.637-.668 2.083L86.778 65h-1.564l-2.127-5.273a23.63 23.63 0 0 1-.809-2.576V65h-1.89v-9.72h2.734l2.11 5.15c.187.474.433 1.339.738 2.593zm12.867 2.154c-1.512 0-2.695-.44-3.55-1.319-.85-.884-1.275-2.1-1.275-3.647 0-1.588.395-2.836 1.186-3.744.791-.908 1.878-1.363 3.261-1.363 1.283 0 2.297.39 3.041 1.17.744.779 1.116 1.851 1.116 3.216v1.117h-6.477c.029.943.284 1.67.764 2.18.48.503 1.157.755 2.03.755.575 0 1.108-.053 1.6-.158a8.64 8.64 0 0 0 1.6-.545v1.679c-.504.24-1.014.41-1.529.51a9.44 9.44 0 0 1-1.767.149zm-.378-8.508c-.656 0-1.184.208-1.582.624-.393.416-.627 1.023-.703 1.82h4.412c-.012-.803-.205-1.41-.58-1.82-.375-.416-.89-.624-1.547-.624zm10.424 8.508c-1.471 0-2.59-.428-3.358-1.283-.761-.862-1.142-2.095-1.142-3.7 0-1.635.398-2.892 1.195-3.771.803-.879 1.96-1.319 3.472-1.319 1.025 0 1.948.19 2.768.572l-.624 1.66c-.873-.339-1.593-.509-2.162-.509-1.681 0-2.522 1.116-2.522 3.349 0 1.09.208 1.91.624 2.46.422.546 1.037.818 1.845.818.92 0 1.791-.228 2.611-.685v1.801a4.074 4.074 0 0 1-1.187.466c-.416.094-.923.14-1.52.14zm12.296-9.897v1.617h-3.164V65h-2.075v-8.103h-3.164v-1.618h8.403zm10.494 4.843c0 1.588-.407 2.827-1.222 3.718-.814.89-1.948 1.336-3.401 1.336-.908 0-1.711-.205-2.408-.615-.698-.41-1.234-1-1.609-1.767-.375-.768-.562-1.658-.562-2.672 0-1.576.404-2.807 1.213-3.691.808-.885 1.948-1.328 3.419-1.328 1.406 0 2.519.455 3.339 1.363.821.902 1.231 2.12 1.231 3.656zm-7.075 0c0 2.244.829 3.366 2.487 3.366 1.641 0 2.461-1.122 2.461-3.366 0-2.22-.826-3.331-2.479-3.331-.867 0-1.497.287-1.889.861-.387.575-.58 1.398-.58 2.47zm17.956-4.843V65h-2.075v-8.086h-4.359V65h-2.065v-9.72h8.499zm11.584 4.843c0 1.588-.408 2.827-1.222 3.718-.814.89-1.948 1.336-3.401 1.336-.909 0-1.711-.205-2.409-.615-.697-.41-1.233-1-1.608-1.767-.375-.768-.562-1.658-.562-2.672 0-1.576.404-2.807 1.212-3.691.809-.885 1.949-1.328 3.419-1.328 1.407 0 2.52.455 3.34 1.363.821.902 1.231 2.12 1.231 3.656zm-7.076 0c0 2.244.83 3.366 2.488 3.366 1.64 0 2.461-1.122 2.461-3.366 0-2.22-.826-3.331-2.479-3.331-.867 0-1.497.287-1.889.861-.387.575-.581 1.398-.581 2.47zM164.509 65h-2.083v-8.103h-2.681c-.164 2.085-.387 3.714-.668 4.886-.275 1.172-.639 2.027-1.09 2.567-.445.539-1.025.808-1.74.808-.451 0-.829-.064-1.134-.193v-1.617c.217.082.434.123.651.123.597 0 1.066-.671 1.406-2.013.346-1.348.615-3.407.809-6.179h6.53V65zm11.584-4.878c0 1.588-.407 2.827-1.222 3.718-.814.89-1.948 1.336-3.401 1.336-.908 0-1.711-.205-2.408-.615-.698-.41-1.234-1-1.609-1.767-.375-.768-.562-1.658-.562-2.672 0-1.576.404-2.807 1.213-3.691.808-.885 1.948-1.328 3.418-1.328 1.407 0 2.52.455 3.34 1.363.821.902 1.231 2.12 1.231 3.656zm-7.075 0c0 2.244.829 3.366 2.487 3.366 1.641 0 2.461-1.122 2.461-3.366 0-2.22-.826-3.331-2.479-3.331-.867 0-1.497.287-1.889.861-.387.575-.58 1.398-.58 2.47zM183.265 60v-4.72h1.924V60l3.745-4.72h2.179l-3.823 4.702L191.456 65h-2.276l-3.991-4.93V65h-1.924v-4.93L179.283 65h-2.267l4.157-5.019-3.815-4.702h2.18l3.727 4.72zm13.939 5.177c-1.512 0-2.695-.44-3.551-1.319-.849-.884-1.274-2.1-1.274-3.647 0-1.588.395-2.836 1.186-3.744.791-.908 1.878-1.363 3.261-1.363 1.283 0 2.297.39 3.041 1.17.744.779 1.116 1.851 1.116 3.216v1.117h-6.477c.029.943.284 1.67.765 2.18.48.503 1.157.755 2.03.755.574 0 1.107-.053 1.599-.158a8.616 8.616 0 0 0 1.6-.545v1.679c-.504.24-1.014.41-1.529.51a9.44 9.44 0 0 1-1.767.149zm-.378-8.508c-.656 0-1.183.208-1.582.624-.392.416-.627 1.023-.703 1.82h4.412c-.012-.803-.205-1.41-.58-1.82-.375-.416-.891-.624-1.547-.624zm8.57-1.389v3.903h4.579V55.28h2.065V65h-2.065v-4.192h-4.579V65h-2.066v-9.72h2.066zm11.583 0v4.984c0 .58-.046 1.432-.14 2.557l4.878-7.54h2.522V65h-1.986v-4.895c0-.27.015-.707.044-1.31.035-.604.064-1.043.088-1.318L217.524 65h-2.522v-9.72h1.977zm23.186 4.843c0 1.594-.39 2.836-1.169 3.727-.773.884-1.854 1.327-3.243 1.327-1.277 0-2.294-.375-3.05-1.125-.75-.756-1.186-1.837-1.309-3.243h-2.145V65h-2.065v-9.72h2.065v3.902h2.162c.147-1.29.598-2.291 1.354-3.006.761-.715 1.769-1.073 3.023-1.073 1.348 0 2.414.455 3.199 1.363.785.902 1.178 2.12 1.178 3.656zm-6.662 0c0 1.108.176 1.945.527 2.514.358.568.938.852 1.741.852.796 0 1.374-.284 1.731-.852.357-.569.536-1.407.536-2.514 0-1.096-.179-1.925-.536-2.487-.357-.563-.935-.844-1.731-.844-.803 0-1.383.281-1.741.844-.351.562-.527 1.391-.527 2.487zM52.02 94l-3.391-8.86h-.055c.064.702.096 1.536.096 2.503V94h-1.073v-9.994h1.75l3.165 8.244h.054l3.193-8.244h1.736V94h-1.162v-6.44c0-.738.032-1.54.096-2.406h-.055L52.956 94h-.937zm9.187-4.395h2.044c.953 0 1.657.177 2.112.533.46.35.69.877.69 1.579 0 .752-.243 1.321-.73 1.709-.484.383-1.197.574-2.14.574h-3.11v-7.492h1.134v3.097zM68.447 94H67.31v-7.492h1.135V94zm-7.24-3.418v2.468h1.92c1.204 0 1.806-.422 1.806-1.265 0-.42-.14-.724-.417-.916-.278-.191-.752-.287-1.422-.287h-1.887zm15.094-.417l-2.605-3.657h1.292l1.976 2.87 1.969-2.87h1.278l-2.605 3.657L80.348 94h-1.285l-2.1-3.035L74.846 94H73.56l2.74-3.835zm12.004.082c0 1.221-.308 2.176-.923 2.864-.615.684-1.465 1.026-2.55 1.026-.67 0-1.265-.157-1.784-.472a3.113 3.113 0 0 1-1.203-1.354c-.283-.587-.424-1.276-.424-2.064 0-1.221.305-2.171.916-2.85.61-.684 1.458-1.026 2.543-1.026 1.048 0 1.88.349 2.495 1.046.62.697.93 1.64.93 2.83zm-5.708 0c0 .957.191 1.686.574 2.188.383.5.945.751 1.688.751s1.306-.248 1.689-.745c.387-.5.58-1.232.58-2.194 0-.952-.193-1.675-.58-2.167-.383-.497-.95-.745-1.702-.745-.743 0-1.304.244-1.682.731-.378.488-.567 1.215-.567 2.181zm12.756-2.769h-2.434V94h-1.135v-6.522h-2.406v-.97h5.975v.97zm4.647 6.66c-1.107 0-1.982-.338-2.625-1.012-.638-.674-.957-1.611-.957-2.81 0-1.207.296-2.167.889-2.877.597-.711 1.396-1.067 2.399-1.067.939 0 1.682.31 2.229.93.546.615.82 1.428.82 2.44v.718h-5.161c.023.88.243 1.547.663 2.003.424.456 1.018.683 1.784.683a6.04 6.04 0 0 0 2.393-.505v1.011a5.808 5.808 0 0 1-1.142.37 6.158 6.158 0 0 1-1.292.116zm-.308-6.816c-.601 0-1.082.196-1.442.588-.356.392-.565.934-.629 1.627h3.917c0-.715-.159-1.262-.478-1.64-.319-.383-.775-.575-1.368-.575zM110.282 94h-1.148v-6.522h-2.249c-.123 1.623-.294 2.91-.513 3.863-.219.952-.504 1.65-.854 2.092-.347.442-.789.663-1.327.663-.246 0-.442-.028-.587-.082v-.841c.1.027.214.04.341.04.524 0 .941-.553 1.251-1.66.31-1.108.545-2.79.704-5.045h4.382V94zm3.48-7.492v4.75l-.048 1.245-.021.39 4.054-6.385h1.415V94h-1.059v-4.58l.02-.902.034-.89L114.11 94h-1.415v-7.492h1.067zm11.053 3c0-1.64.242-2.918.725-3.834.483-.92 1.249-1.495 2.297-1.723a94.936 94.936 0 0 1 3.445-.677l.212.998c-1.581.265-2.711.474-3.39.63-.661.15-1.158.505-1.491 1.066-.328.56-.508 1.324-.54 2.29h.082a2.945 2.945 0 0 1 1.094-.902 3.148 3.148 0 0 1 1.401-.329c.921 0 1.639.299 2.154.896.515.597.772 1.424.772 2.481 0 1.172-.298 2.088-.895 2.748-.597.657-1.429.985-2.495.985-1.053 0-1.878-.404-2.475-1.21-.597-.807-.896-1.946-.896-3.418zm3.473 3.678c1.39 0 2.085-.886 2.085-2.659 0-1.69-.631-2.536-1.894-2.536-.346 0-.681.073-1.004.219a3.42 3.42 0 0 0-.882.567c-.265.237-.47.481-.615.732 0 1.198.189 2.112.567 2.741.378.624.959.936 1.743.936zm6.405-3.582h2.044c.953 0 1.657.178 2.113.534.46.35.69.877.69 1.579 0 .752-.244 1.321-.731 1.709-.483.383-1.197.574-2.14.574h-3.11v-7.492h1.134v3.097zm7.24 4.396h-1.135v-7.492h1.135V94zm-7.24-3.418v2.468h1.921c1.203 0 1.805-.422 1.805-1.265 0-.42-.139-.724-.417-.916-.278-.191-.752-.287-1.422-.287h-1.887zM149.117 94h-1.135v-7.492h6.289V94h-1.148v-6.508h-4.006V94zm14.028-3.753c0 1.221-.308 2.176-.923 2.864-.616.684-1.465 1.026-2.55 1.026-.67 0-1.265-.157-1.784-.472a3.106 3.106 0 0 1-1.203-1.354c-.283-.587-.424-1.276-.424-2.064 0-1.221.305-2.171.916-2.85.61-.684 1.458-1.026 2.543-1.026 1.048 0 1.88.349 2.495 1.046.62.697.93 1.64.93 2.83zm-5.708 0c0 .957.191 1.686.574 2.188.383.5.945.751 1.688.751s1.306-.248 1.689-.745c.387-.5.581-1.232.581-2.194 0-.952-.194-1.675-.581-2.167-.383-.497-.95-.745-1.702-.745-.743 0-1.304.244-1.682.731-.378.488-.567 1.215-.567 2.181zm11.593 2.66l.212-.636.294-.807 2.03-4.942h1.443V94h-1.005v-6.186l-.137.396-.396 1.046L169.536 94h-.95l-1.935-4.758a14.103 14.103 0 0 1-.499-1.428V94h-1.011v-7.478h1.387l1.962 4.75c.196.502.376 1.046.54 1.634zm12.872-2.66c0 1.221-.307 2.176-.923 2.864-.615.684-1.465 1.026-2.549 1.026-.67 0-1.265-.157-1.784-.472-.52-.314-.921-.766-1.204-1.354-.282-.587-.423-1.276-.423-2.064 0-1.221.305-2.171.916-2.85.61-.684 1.458-1.026 2.543-1.026 1.048 0 1.879.349 2.495 1.046.619.697.929 1.64.929 2.83zm-5.708 0c0 .957.192 1.686.575 2.188.382.5.945.751 1.688.751s1.306-.248 1.689-.745c.387-.5.581-1.232.581-2.194 0-.952-.194-1.675-.581-2.167-.383-.497-.951-.745-1.703-.745-.742 0-1.303.244-1.681.731-.379.488-.568 1.215-.568 2.181zm8.702-3.74v2.735c0 .875.5 1.313 1.498 1.313.414 0 .811-.064 1.189-.192.378-.127.807-.344 1.285-.65v-3.205h1.135V94h-1.135v-3.39c-.478.328-.923.56-1.333.697a4.446 4.446 0 0 1-1.381.198c-.747 0-1.333-.196-1.757-.588-.423-.392-.635-.923-.635-1.593v-2.816h1.134zm8.655 3.097h2.31c1.914 0 2.871.705 2.871 2.113 0 .738-.25 1.303-.752 1.695-.496.392-1.225.588-2.187.588h-3.377v-7.492h1.135v3.097zm0 .978v2.468h2.187c.602 0 1.062-.105 1.381-.315.319-.21.479-.526.479-.95 0-.415-.148-.718-.445-.909-.291-.196-.774-.294-1.449-.294h-2.153zm16.864-2.194c0 .487-.141.859-.424 1.114-.278.25-.67.42-1.176.506v.061c.638.087 1.103.274 1.395.56.296.288.444.684.444 1.19 0 .698-.257 1.235-.772 1.614-.511.378-1.258.567-2.242.567h-3.302v-7.492h3.288c1.859 0 2.789.626 2.789 1.88zm-.895 3.356c0-.406-.155-.7-.465-.882-.306-.186-.814-.28-1.525-.28h-2.057v2.468h2.085c1.308 0 1.962-.435 1.962-1.306zm-.212-3.247c0-.365-.142-.622-.424-.772-.278-.155-.702-.233-1.272-.233h-2.139v2.112h1.921c.701 0 1.196-.086 1.483-.26.287-.172.431-.455.431-.847zM216.916 94l-.226-1.066h-.054c-.374.469-.748.788-1.121.957-.369.164-.832.246-1.388.246-.743 0-1.326-.192-1.75-.575-.419-.382-.629-.927-.629-1.633 0-1.513 1.21-2.306 3.63-2.38l1.271-.04v-.465c0-.588-.127-1.02-.382-1.299-.251-.282-.654-.424-1.21-.424-.625 0-1.331.192-2.119.575l-.349-.869c.369-.2.772-.357 1.21-.471a5.29 5.29 0 0 1 1.326-.171c.893 0 1.554.198 1.982.594.433.397.65 1.033.65 1.908V94h-.841zm-2.563-.8c.706 0 1.26-.194 1.661-.58.405-.388.608-.93.608-1.628v-.677l-1.135.048c-.902.032-1.554.174-1.955.424-.396.246-.594.631-.594 1.155 0 .41.123.723.369.937.25.214.599.321 1.046.321zm9.638-.294l.212-.636.294-.806 2.03-4.942h1.443V94h-1.005v-6.186l-.137.396-.396 1.046L224.497 94h-.95l-1.935-4.758a14.103 14.103 0 0 1-.499-1.428V94h-1.011v-7.478h1.387l1.962 4.75c.196.502.376 1.046.54 1.634zm11.177-6.398v3.138h4.197v-3.138h1.135V94h-1.135v-3.377h-4.197V94h-1.135v-7.492h1.135zM247.514 94l-.226-1.066h-.055c-.373.469-.747.788-1.121.957-.369.164-.831.246-1.387.246-.743 0-1.327-.192-1.75-.575-.42-.382-.629-.927-.629-1.633 0-1.513 1.21-2.306 3.63-2.38l1.271-.04v-.465c0-.588-.128-1.02-.383-1.299-.25-.282-.654-.424-1.21-.424-.624 0-1.33.192-2.119.575l-.348-.869c.369-.2.772-.357 1.209-.471a5.304 5.304 0 0 1 1.327-.171c.893 0 1.554.198 1.982.594.433.397.649 1.033.649 1.908V94h-.84zm-2.564-.8c.707 0 1.26-.194 1.661-.58.406-.388.609-.93.609-1.628v-.677l-1.135.048c-.902.032-1.554.174-1.955.424-.397.246-.595.631-.595 1.155 0 .41.123.723.369.937.251.214.6.321 1.046.321zm6.816-6.692v4.75l-.048 1.245-.021.39 4.054-6.385h1.415V94h-1.06v-4.58l.021-.902.034-.89L252.114 94h-1.415v-7.492h1.067zm2.139-.991c-.843 0-1.458-.162-1.845-.486-.388-.328-.604-.866-.65-1.613h1.067c.041.474.164.804.369.991.209.187.572.28 1.087.28.469 0 .815-.1 1.039-.3.228-.2.367-.524.417-.971h1.073c-.055.72-.285 1.25-.691 1.593-.405.337-1.027.506-1.866.506zm10.719 1.962h-2.434V94h-1.134v-6.522h-2.407v-.97h5.975v.97zm2.55-.971v4.75l-.048 1.245-.021.39 4.054-6.385h1.415V94h-1.059v-4.58l.02-.902.034-.89L267.522 94h-1.415v-7.492h1.067zM58.568 113H57.42v-6.521h-2.25c-.122 1.622-.293 2.909-.512 3.862-.218.952-.503 1.65-.854 2.092-.347.442-.789.663-1.327.663a1.73 1.73 0 0 1-.587-.082v-.841c.1.027.214.041.341.041.524 0 .941-.554 1.251-1.661.31-1.108.545-2.789.705-5.045h4.381V113zm1.224-7.492h1.217l1.64 4.272c.36.976.584 1.68.67 2.113h.055c.06-.233.182-.629.37-1.19.19-.565.81-2.297 1.859-5.195h1.216l-3.22 8.531c-.318.843-.692 1.44-1.12 1.791-.424.356-.946.533-1.566.533-.346 0-.688-.038-1.025-.116v-.909c.25.055.53.082.84.082.78 0 1.336-.438 1.669-1.313l.416-1.066-3.021-7.533zm9.242 0v2.734c0 .875.5 1.313 1.497 1.313a3.69 3.69 0 0 0 1.19-.192c.378-.127.806-.344 1.285-.649v-3.206h1.135V113h-1.135v-3.391c-.479.329-.923.561-1.333.698a4.455 4.455 0 0 1-1.381.198c-.747 0-1.333-.196-1.757-.588-.424-.392-.636-.923-.636-1.593v-2.816h1.135zm13.105 6.514h3.322v-6.514h1.148V113H76.554v-7.492h1.135v6.514h3.315v-6.514h1.135v6.514zm7.95-6.514v4.751l-.048 1.244-.02.39 4.053-6.385h1.415V113h-1.06v-4.58l.021-.902.034-.889L90.438 113h-1.416v-7.492h1.067zm8.873 0v4.751l-.048 1.244-.02.39 4.053-6.385h1.415V113h-1.059v-4.58l.02-.902.034-.889L99.311 113h-1.416v-7.492h1.067zm2.14-.991c-.844 0-1.459-.162-1.846-.486-.388-.328-.604-.866-.65-1.613h1.067c.04.474.164.804.369.991.21.187.572.28 1.087.28.469 0 .816-.1 1.039-.3.228-.201.367-.524.417-.971h1.073c-.054.72-.285 1.251-.69 1.593-.406.337-1.028.506-1.866.506zm12.79 8.62c-.488 0-.935-.089-1.34-.267a2.54 2.54 0 0 1-1.012-.834h-.082c.055.438.082.852.082 1.244v3.083h-1.135v-10.855h.923l.157 1.025h.055c.292-.41.631-.706 1.019-.888.387-.183.831-.274 1.333-.274.993 0 1.759.34 2.296 1.019.543.679.814 1.631.814 2.857 0 1.231-.276 2.188-.827 2.871-.547.679-1.308 1.019-2.283 1.019zm-.164-6.802c-.766 0-1.32.212-1.662.636-.341.424-.517 1.098-.526 2.023v.253c0 1.053.175 1.807.526 2.263.351.451.914.677 1.689.677.647 0 1.153-.263 1.517-.787.37-.524.554-1.246.554-2.167 0-.934-.184-1.649-.554-2.146-.364-.501-.879-.752-1.544-.752zm8.428 6.802c-1.107 0-1.982-.338-2.625-1.012-.638-.674-.957-1.611-.957-2.81 0-1.207.296-2.167.889-2.877.597-.711 1.397-1.067 2.399-1.067.939 0 1.682.31 2.229.93.547.615.82 1.428.82 2.44v.718h-5.161c.023.88.244 1.547.663 2.003.424.456 1.019.684 1.784.684.807 0 1.604-.169 2.393-.506v1.011a5.761 5.761 0 0 1-1.142.37 6.193 6.193 0 0 1-1.292.116zm-.307-6.816c-.602 0-1.083.196-1.443.588-.355.392-.565.934-.629 1.627h3.917c0-.715-.159-1.262-.478-1.64-.319-.383-.775-.575-1.367-.575zm7.998 6.816c-1.085 0-1.926-.333-2.523-.998-.592-.67-.888-1.616-.888-2.837 0-1.253.3-2.222.902-2.906.606-.683 1.467-1.025 2.584-1.025.36 0 .72.039 1.08.116.36.078.643.169.848.274l-.349.964a4.958 4.958 0 0 0-.82-.246 3.523 3.523 0 0 0-.786-.103c-1.523 0-2.284.971-2.284 2.912 0 .921.185 1.627.554 2.119.374.492.925.739 1.654.739.625 0 1.265-.135 1.921-.404v1.005c-.501.26-1.132.39-1.893.39zm8.729-6.658h-2.433V113h-1.135v-6.521h-2.406v-.971h5.974v.971zm7.95 2.768c0 1.221-.307 2.176-.922 2.864-.616.684-1.466 1.026-2.55 1.026-.67 0-1.265-.158-1.784-.472-.52-.314-.921-.766-1.204-1.353-.282-.588-.423-1.277-.423-2.065 0-1.221.305-2.171.916-2.851.61-.683 1.458-1.025 2.543-1.025 1.048 0 1.879.349 2.495 1.046.619.697.929 1.641.929 2.83zm-5.708 0c0 .957.192 1.686.575 2.188.382.501.945.752 1.688.752s1.306-.249 1.689-.746c.387-.501.581-1.232.581-2.194 0-.952-.194-1.675-.581-2.167-.383-.497-.951-.745-1.703-.745-.742 0-1.303.244-1.681.731-.379.488-.568 1.215-.568 2.181zm11.191 3.89c-.488 0-.934-.089-1.34-.267a2.546 2.546 0 0 1-1.012-.834h-.082c.055.438.082.852.082 1.244v3.083h-1.135v-10.855h.923l.158 1.025h.054c.292-.41.631-.706 1.019-.888.387-.183.831-.274 1.333-.274.993 0 1.759.34 2.297 1.019.542.679.813 1.631.813 2.857 0 1.231-.276 2.188-.827 2.871-.547.679-1.308 1.019-2.283 1.019zm-.164-6.802c-.766 0-1.32.212-1.661.636-.342.424-.518 1.098-.527 2.023v.253c0 1.053.176 1.807.527 2.263.351.451.913.677 1.688.677.647 0 1.153-.263 1.518-.787.369-.524.553-1.246.553-2.167 0-.934-.184-1.649-.553-2.146-.365-.501-.88-.752-1.545-.752zm9.871 6.665l-.226-1.066h-.054c-.374.469-.748.788-1.122.957-.369.164-.831.246-1.387.246-.743 0-1.326-.192-1.75-.575-.42-.382-.629-.927-.629-1.633 0-1.513 1.21-2.306 3.63-2.379l1.271-.041v-.465c0-.588-.127-1.021-.383-1.299-.25-.282-.654-.424-1.21-.424-.624 0-1.33.192-2.119.575l-.348-.869c.369-.2.772-.357 1.21-.471a5.29 5.29 0 0 1 1.326-.171c.893 0 1.554.198 1.982.594.433.397.65 1.033.65 1.908V113h-.841zm-2.564-.8c.707 0 1.26-.193 1.661-.581.406-.387.609-.93.609-1.627v-.677l-1.135.048c-.902.032-1.554.173-1.955.424-.396.246-.595.631-.595 1.155 0 .411.123.723.369.937.251.214.6.321 1.046.321zm6.884-6.692v3.138h4.197v-3.138h1.135V113h-1.135v-3.377h-4.197V113h-1.135v-7.492h1.135zm14.861 7.629c-.487 0-.934-.089-1.339-.267a2.54 2.54 0 0 1-1.012-.834h-.082c.055.438.082.852.082 1.244v3.083h-1.135v-10.855h.923l.157 1.025h.055c.292-.41.631-.706 1.018-.888.388-.183.832-.274 1.333-.274.994 0 1.76.34 2.297 1.019.543.679.814 1.631.814 2.857 0 1.231-.276 2.188-.827 2.871-.547.679-1.308 1.019-2.284 1.019zm-.164-6.802c-.765 0-1.319.212-1.661.636-.342.424-.517 1.098-.526 2.023v.253c0 1.053.175 1.807.526 2.263.351.451.914.677 1.689.677.647 0 1.153-.263 1.517-.787.369-.524.554-1.246.554-2.167 0-.934-.185-1.649-.554-2.146-.364-.501-.879-.752-1.545-.752zm5.64 6.665h-1.326l2.153-3.165c-.579-.128-1.023-.374-1.333-.738-.305-.369-.458-.832-.458-1.388 0-.684.23-1.221.691-1.613.46-.392 1.102-.588 1.927-.588h3.336V113h-1.134v-2.994h-1.894L186.373 113zm.144-5.277c0 .866.629 1.298 1.886 1.298h1.826v-2.529h-2.058c-1.103 0-1.654.41-1.654 1.231zm13.767 7.868h-1.1V113h-5.237v2.591h-1.093v-3.569h.587c.611-.829 1.09-1.802 1.436-2.918.346-1.117.526-2.316.54-3.596h3.794v6.514h1.073v3.569zm-2.167-3.569v-5.619h-1.681a12.518 12.518 0 0 1-.588 3.076c-.328 1.035-.739 1.883-1.231 2.543h3.5zm10.138-2.775c0 1.221-.308 2.176-.923 2.864-.615.684-1.465 1.026-2.55 1.026-.67 0-1.264-.158-1.784-.472a3.114 3.114 0 0 1-1.203-1.353c-.283-.588-.424-1.277-.424-2.065 0-1.221.305-2.171.916-2.851.611-.683 1.458-1.025 2.543-1.025 1.048 0 1.88.349 2.495 1.046.62.697.93 1.641.93 2.83zm-5.708 0c0 .957.191 1.686.574 2.188.383.501.946.752 1.689.752.742 0 1.305-.249 1.688-.746.387-.501.581-1.232.581-2.194 0-.952-.194-1.675-.581-2.167-.383-.497-.95-.745-1.702-.745-.743 0-1.303.244-1.682.731-.378.488-.567 1.215-.567 2.181zm11.594 2.659l.212-.635.293-.807 2.031-4.943h1.442V113h-1.005v-6.187l-.136.397-.397 1.046-1.935 4.744h-.95l-1.934-4.758a13.782 13.782 0 0 1-.499-1.429V113h-1.012v-7.479h1.388l1.962 4.751c.196.502.376 1.046.54 1.634zm13.036 1.231c-1.085 0-1.926-.333-2.523-.998-.592-.67-.888-1.616-.888-2.837 0-1.253.3-2.222.902-2.906.606-.683 1.467-1.025 2.584-1.025.36 0 .72.039 1.08.116.36.078.643.169.848.274l-.349.964a4.958 4.958 0 0 0-.82-.246 3.516 3.516 0 0 0-.786-.103c-1.523 0-2.284.971-2.284 2.912 0 .921.185 1.627.554 2.119.374.492.925.739 1.654.739.625 0 1.265-.135 1.921-.404v1.005c-.501.26-1.132.39-1.893.39zm13.391-5.749c0 .487-.141.859-.423 1.114-.278.251-.67.419-1.176.506v.061c.638.087 1.103.274 1.394.561.297.287.445.683.445 1.189 0 .698-.258 1.235-.773 1.614-.51.378-1.258.567-2.242.567h-3.302v-7.492h3.288c1.86 0 2.789.626 2.789 1.88zm-.895 3.356c0-.405-.155-.699-.465-.882-.305-.187-.813-.28-1.524-.28h-2.058v2.468h2.085c1.308 0 1.962-.435 1.962-1.306zm-.212-3.247c0-.365-.141-.622-.424-.772-.278-.155-.702-.233-1.271-.233h-2.14v2.112h1.921c.702 0 1.196-.086 1.483-.259.287-.173.431-.456.431-.848zm7.608 5.503l-.225-1.066h-.055c-.374.469-.747.788-1.121.957-.369.164-.832.246-1.388.246-.743 0-1.326-.192-1.75-.575-.419-.382-.629-.927-.629-1.633 0-1.513 1.21-2.306 3.63-2.379l1.272-.041v-.465c0-.588-.128-1.021-.383-1.299-.251-.282-.654-.424-1.21-.424-.624 0-1.331.192-2.119.575l-.349-.869a5.38 5.38 0 0 1 1.21-.471 5.29 5.29 0 0 1 1.326-.171c.894 0 1.554.198 1.983.594.433.397.649 1.033.649 1.908V113h-.841zm-2.563-.8c.706 0 1.26-.193 1.661-.581.406-.387.608-.93.608-1.627v-.677l-1.134.048c-.903.032-1.554.173-1.955.424-.397.246-.595.631-.595 1.155 0 .411.123.723.369.937.251.214.599.321 1.046.321zm9.639-.294l.211-.635.294-.807 2.031-4.943h1.442V113h-1.005v-6.187l-.137.397-.396 1.046L254.65 113h-.95l-1.934-4.758a13.782 13.782 0 0 1-.499-1.429V113h-1.012v-7.479h1.388l1.961 4.751c.196.502.376 1.046.541 1.634zm7.471-6.398v4.751l-.048 1.244-.02.39 4.054-6.385h1.415V113h-1.06v-4.58l.021-.902.034-.889-4.047 6.371h-1.415v-7.492h1.066z" fill="#414141"/><rect x="13" y="452" width="295" height="48" rx="24" fill="#73C088"/><path d="M61.8 481.198h.993c.85-1.552 1.562-3.296 2.136-5.229a28.937 28.937 0 0 0 1.107-5.819h6.636v11.048h1.661v5.344h-2.022V483h-8.49v3.542H61.8v-5.344zm5.994-9.228c-.129 1.33-.457 2.874-.984 4.632-.528 1.752-1.128 3.284-1.802 4.596h5.563v-9.228h-2.777zM84.388 483l-1.284-3.568h-4.913L76.935 483H74.72l4.807-12.902h2.285L86.62 483h-2.232zm-1.837-5.379l-1.204-3.498a26.33 26.33 0 0 1-.686-2.215 19.65 19.65 0 0 1-.694 2.364l-1.16 3.349h3.744zm7.69 3.489c-.281 1.09-.797 2.494-1.547 4.21h-1.52c.404-1.582.706-3.052.905-4.412h2.03l.132.202zm17.701 1.89h-2.109v-5.792h-5.924V483h-2.1v-12.85h2.1v5.256h5.924v-5.256h2.109V483zm11.356 0l-1.283-3.568h-4.913L111.845 483h-2.215l4.808-12.902h2.285L121.53 483h-2.232zm-1.837-5.379l-1.204-3.498a23.16 23.16 0 0 1-.369-1.107 26.102 26.102 0 0 1-.317-1.108 19.554 19.554 0 0 1-.694 2.364l-1.16 3.349h3.744zm5.766-7.471h1.924v6.68c0 .697-.017 1.403-.052 2.118-.036.709-.062 1.19-.079 1.442h.079l6.565-10.24h2.452V483h-1.933v-6.627c0-1.014.055-2.244.167-3.691h-.071L125.688 483h-2.461v-12.85zm5.51-1.028c-1.242 0-2.153-.223-2.733-.668-.574-.451-.894-1.201-.958-2.25h1.872c.035.422.114.75.237.984.129.235.311.405.545.51.24.1.604.15 1.09.15.574 0 1.011-.126 1.31-.378.298-.258.48-.68.545-1.266h1.907c-.088 1.008-.443 1.746-1.064 2.215-.621.469-1.538.703-2.751.703zM141.921 483h-2.101v-11.048h-3.779v-1.802h9.659v1.802h-3.779V483zm5.757-12.85h1.925v6.68c0 .697-.018 1.403-.053 2.118-.035.709-.062 1.19-.079 1.442h.079l6.565-10.24h2.452V483h-1.933v-6.627c0-1.014.055-2.244.167-3.691h-.071L150.139 483h-2.461v-12.85zm27.439 3.885c0 1.342-.439 2.37-1.318 3.085-.879.715-2.13 1.072-3.753 1.072h-1.336V483h-2.101v-12.85h3.701c1.605 0 2.806.329 3.603.985.803.656 1.204 1.623 1.204 2.9zm-6.407 2.391h1.116c1.078 0 1.869-.188 2.373-.563.504-.375.756-.961.756-1.758 0-.738-.226-1.289-.677-1.652-.451-.363-1.154-.545-2.109-.545h-1.459v4.518zM184.952 483h-7.268v-12.85h7.268v1.776h-5.168v3.498h4.843v1.758h-4.843v4.034h5.168V483zm8.253-11.232c-1.207 0-2.156.427-2.848 1.283-.691.855-1.037 2.036-1.037 3.542 0 1.576.331 2.768.993 3.577.668.809 1.632 1.213 2.892 1.213.545 0 1.072-.053 1.582-.158.51-.112 1.04-.252 1.591-.422v1.801c-1.008.381-2.15.572-3.428.572-1.881 0-3.325-.569-4.333-1.705-1.008-1.143-1.512-2.775-1.512-4.896 0-1.336.244-2.505.73-3.507.492-1.002 1.201-1.769 2.127-2.302.926-.534 2.013-.8 3.261-.8 1.312 0 2.525.275 3.638.826l-.756 1.749a10.647 10.647 0 0 0-1.379-.536 4.843 4.843 0 0 0-1.521-.237zM203.585 483h-2.101v-11.048h-3.779v-1.802h9.659v1.802h-3.779V483zm17.165-6.442c0 2.091-.524 3.717-1.573 4.878-1.043 1.16-2.523 1.74-4.439 1.74-1.939 0-3.43-.574-4.473-1.723-1.037-1.154-1.556-2.792-1.556-4.913 0-2.121.521-3.75 1.564-4.887 1.049-1.136 2.543-1.705 4.483-1.705 1.91 0 3.387.577 4.43 1.732 1.043 1.154 1.564 2.78 1.564 4.878zm-9.809 0c0 1.582.32 2.783.958 3.603.639.815 1.585 1.222 2.839 1.222 1.248 0 2.189-.404 2.822-1.213.638-.809.958-2.013.958-3.612 0-1.577-.317-2.772-.95-3.586-.627-.815-1.564-1.222-2.812-1.222-1.26 0-2.212.407-2.857 1.222-.638.814-.958 2.009-.958 3.586zm21.077-2.523c0 1.342-.44 2.37-1.319 3.085-.879.715-2.13 1.072-3.753 1.072h-1.336V483h-2.1v-12.85h3.7c1.605 0 2.807.329 3.603.985.803.656 1.205 1.623 1.205 2.9zm-6.408 2.391h1.117c1.078 0 1.869-.188 2.373-.563.504-.375.755-.961.755-1.758 0-.738-.225-1.289-.676-1.652-.451-.363-1.155-.545-2.11-.545h-1.459v4.518zM242.556 483l-1.284-3.568h-4.913L235.103 483h-2.215l4.807-12.902h2.285L244.788 483h-2.232zm-1.837-5.379l-1.204-3.498a23.16 23.16 0 0 1-.369-1.107 26.102 26.102 0 0 1-.317-1.108c-.158.721-.39 1.509-.694 2.364l-1.16 3.349h3.744zM256.618 483h-2.109v-5.792h-5.924V483h-2.101v-12.85h2.101v5.256h5.924v-5.256h2.109V483z" fill="#fff"/><path d="M107.827 543h-1.494v-6.047h-6.768V543h-1.494v-12.85h1.494v5.467h6.768v-5.467h1.494V543zm10.696 0h-7.163v-12.85h7.163v1.328h-5.669v4.139h5.327v1.319h-5.327v4.728h5.669V543zm6.812 0h-1.494v-11.522h-4.07v-1.328h9.633v1.328h-4.069V543zm7.321-2.092l.132.202a21.46 21.46 0 0 1-.659 2.039c-.287.78-.586 1.503-.897 2.171h-1.098c.158-.609.331-1.362.518-2.258.194-.897.328-1.615.405-2.154h1.599zm13.281-9.606c-1.413 0-2.529.471-3.349 1.415-.815.937-1.222 2.223-1.222 3.858 0 1.682.393 2.983 1.178 3.903.791.914 1.916 1.371 3.375 1.371.896 0 1.919-.161 3.067-.484v1.31c-.89.334-1.989.501-3.296.501-1.892 0-3.354-.574-4.385-1.723-1.026-1.148-1.538-2.78-1.538-4.895 0-1.325.246-2.485.738-3.481.498-.996 1.213-1.764 2.144-2.303.938-.539 2.039-.808 3.305-.808 1.348 0 2.525.246 3.533.738l-.633 1.283c-.972-.457-1.945-.685-2.917-.685zM161.379 543h-1.494v-11.522h-6.601V543h-1.494v-12.85h9.589V543zm11.619 0l-1.6-4.087h-5.15L164.666 543h-1.512l5.08-12.902h1.257L174.545 543h-1.547zm-2.065-5.432l-1.495-3.981a21.406 21.406 0 0 1-.597-1.855 16.714 16.714 0 0 1-.554 1.855l-1.512 3.981h4.158zm10.88-6.266c-1.412 0-2.528.471-3.348 1.415-.815.937-1.222 2.223-1.222 3.858 0 1.682.393 2.983 1.178 3.903.791.914 1.916 1.371 3.375 1.371.896 0 1.919-.161 3.067-.484v1.31c-.89.334-1.989.501-3.296.501-1.892 0-3.354-.574-4.385-1.723-1.026-1.148-1.538-2.78-1.538-4.895 0-1.325.246-2.485.738-3.481.498-.996 1.213-1.764 2.144-2.303.938-.539 2.039-.808 3.305-.808 1.348 0 2.525.246 3.533.738l-.633 1.283c-.972-.457-1.945-.685-2.918-.685zm5.872-1.152h1.397v7.146c0 1.318-.041 2.511-.123 3.577h.07l7.207-10.723h1.635V543h-1.406v-7.075c0-1.178.05-2.414.149-3.709h-.079L189.319 543h-1.634v-12.85zm22.043 9.106c0 1.277-.381 2.221-1.143 2.83-.756.609-1.898.914-3.428.914h-3.761v-12.85h7.576v1.328h-6.082v4.157h1.995c1.131 0 2.051.132 2.76.395.709.258 1.233.642 1.573 1.152.34.509.51 1.201.51 2.074zm-6.838 2.452h2.1c1.114 0 1.922-.19 2.426-.571.51-.381.765-1.008.765-1.881 0-.832-.258-1.424-.774-1.776-.515-.351-1.415-.527-2.698-.527h-1.819v4.755zm20.698-5.15c0 2.056-.522 3.673-1.565 4.851-1.037 1.178-2.481 1.767-4.333 1.767-1.892 0-3.354-.577-4.385-1.732-1.026-1.16-1.538-2.795-1.538-4.904 0-2.092.515-3.712 1.546-4.86 1.032-1.155 2.497-1.732 4.395-1.732 1.846 0 3.287.586 4.324 1.758 1.037 1.172 1.556 2.789 1.556 4.852zm-10.239 0c0 1.74.369 3.061 1.107 3.963.744.897 1.822 1.345 3.234 1.345 1.424 0 2.499-.448 3.226-1.345.727-.896 1.09-2.217 1.09-3.963 0-1.729-.363-3.038-1.09-3.929-.721-.897-1.79-1.345-3.208-1.345-1.424 0-2.508.451-3.252 1.354-.738.896-1.107 2.203-1.107 3.92z" fill="#73C088"/><ellipse cx="161.5" cy="256.05" rx="99.5" ry="99.325" fill="#FFFDFC"/><mask id="a" maskUnits="userSpaceOnUse" x="62" y="156" width="199" height="200"><ellipse cx="161.5" cy="256.05" rx="99.5" ry="99.325" fill="#FFEDDE"/></mask><g mask="url(#a)"><rect x="162" y="279.509" width="140" height="115.796" rx="3" fill="#9AE5AF"/><rect x="176" y="301.47" width="126" height="115.796" rx="3" fill="#73C088"/><rect x="37" y="260.542" width="106" height="115.796" rx="3" fill="#73C088"/><rect x="171" y="144.746" width="139" height="115.796" rx="3" fill="#9AE5AF"/><rect x="176" y="134.763" width="117" height="115.796" rx="3" fill="#73C088"/><rect x="37" y="125.779" width="115" height="115.796" rx="3" fill="#9AE5AF"/><rect x="44" y="108.809" width="108" height="115.796" rx="3" fill="#73C088"/><circle r="33.469" transform="rotate(-44.95 418.34 -66.849)" stroke="#414141" stroke-width="3"/><path fill="#414141" d="M191.417 300.718l4.243-4.235 6.364 6.352-4.243 4.236z"/><rect width="12.989" height="38.966" rx="2" transform="rotate(-44.95 472.016 -80.674)" fill="#265031"/><g clip-path="url(#b)"><path d="M182.649 253.24a16.718 16.718 0 0 0-11.887-4.915 16.716 16.716 0 0 0-11.887 4.915c-5.875 5.865-6.606 16.899-1.581 23.585l13.468 19.416 13.448-19.389c5.045-6.713 4.315-17.747-1.561-23.612z" fill="#58A36C"/><path d="M170.917 258.826c-3.382 0-6.136 2.748-6.136 6.125s2.754 6.126 6.136 6.126c3.383 0 6.137-2.749 6.137-6.126 0-3.377-2.754-6.125-6.137-6.125z" fill="#FFFDFC"/></g></g><defs><clipPath id="b"><path fill="#fff" transform="translate(146.761 248.325)" d="M0 0h48v47.916H0z"/></clipPath></defs></svg>