<svg width="24" height="20" viewBox="0 0 24 20" fill="none" xmlns="http://www.w3.org/2000/svg"><path d="M23.084 2.693a9.051 9.051 0 0 1-1.58.532 4.92 4.92 0 0 0 1.3-2.069.258.258 0 0 0-.377-.3 9.108 9.108 0 0 1-2.414.997.64.64 0 0 1-.574-.143A4.936 4.936 0 0 0 16.174.478c-.522 0-1.048.08-1.564.241a4.783 4.783 0 0 0-3.223 3.446 5.263 5.263 0 0 0-.117 1.817.183.183 0 0 1-.198.2 12.943 12.943 0 0 1-8.897-4.753.258.258 0 0 0-.423.033 4.934 4.934 0 0 0-.668 2.481c0 1.338.538 2.6 1.472 3.519a4.425 4.425 0 0 1-1.126-.436.258.258 0 0 0-.384.223 4.943 4.943 0 0 0 2.883 4.553l-.105.001a4.42 4.42 0 0 1-.832-.08.258.258 0 0 0-.294.333 4.947 4.947 0 0 0 3.908 3.365 9.109 9.109 0 0 1-5.102 1.55l-.57-.001a.378.378 0 0 0-.37.285.39.39 0 0 0 .187.432 13.548 13.548 0 0 0 6.808 1.836c2.092 0 4.05-.415 5.817-1.235a12.846 12.846 0 0 0 4.257-3.19 13.983 13.983 0 0 0 2.607-4.365c.58-1.548.886-3.2.886-4.777V5.88a.84.84 0 0 1 .314-.654 9.759 9.759 0 0 0 1.963-2.154c.143-.214-.083-.484-.32-.38z" fill="#73C088"/></svg>